{"glyphs":{"0":{"ha":694,"x_min":25,"x_max":669,"o":"m 25 292 q 151 736 25 519 q 452 953 277 953 q 609 867 549 953 q 669 639 669 781 q 543 185 669 386 q 254 -15 417 -15 q 88 67 151 -15 q 25 292 25 150 m 170 124 q 241 28 170 28 q 433 370 342 28 q 524 807 524 712 q 454 910 524 910 q 265 563 361 910 q 170 124 170 216 z "},"1":{"ha":694,"x_min":8,"x_max":583,"o":"m 8 0 l 8 35 q 128 64 91 35 q 182 167 159 88 l 349 762 q 358 805 358 789 q 294 853 358 853 q 205 846 252 853 l 208 881 q 583 953 408 911 l 583 953 l 373 186 q 353 96 353 112 q 387 46 353 58 q 489 35 421 35 l 489 0 l 8 0 z "},"2":{"ha":694,"x_min":-39,"x_max":623,"o":"m 148 154 l 148 154 l 369 154 q 486 180 456 154 q 549 260 516 205 l 585 260 l 473 0 l -39 0 l -39 33 l 123 194 q 437 667 437 505 q 420 760 437 725 q 378 810 404 795 q 309 828 349 828 q 119 703 199 828 l 89 720 q 391 953 197 953 q 558 883 493 953 q 623 716 623 814 q 567 547 623 630 q 452 413 511 463 l 148 154 z "},"3":{"ha":694,"x_min":-22,"x_max":629,"o":"m 189 517 q 454 730 454 570 q 420 821 454 787 q 332 854 387 854 q 239 827 277 854 q 163 747 201 801 l 133 765 q 421 953 250 953 q 568 898 507 953 q 629 765 629 844 q 462 555 629 633 l 462 555 q 570 348 570 479 q 451 90 570 196 q 161 -15 332 -15 q 20 17 64 -15 q -22 89 -22 50 l -22 94 q -3 147 -22 125 q 51 170 18 170 l 58 170 q 153 104 111 170 q 241 41 194 41 q 350 109 304 41 q 395 267 395 178 q 341 427 395 368 q 184 486 288 486 l 184 486 l 189 517 z "},"4":{"ha":694,"x_min":-20,"x_max":707,"o":"m -20 210 l 18 355 l 618 953 l 707 953 l 539 346 l 636 346 l 598 210 l 501 210 l 443 0 l 265 0 l 323 210 l -20 210 m 77 346 l 77 346 l 361 346 l 469 738 l 469 738 l 77 346 z "},"5":{"ha":694,"x_min":-14,"x_max":678,"o":"m 103 520 l 286 933 l 678 933 l 628 782 l 275 782 l 275 782 l 228 674 l 228 674 q 572 350 572 623 q 451 86 572 187 q 160 -15 330 -15 q 29 18 72 -15 q -14 87 -14 50 l -14 91 q 5 147 -14 125 q 62 170 24 170 l 68 170 q 161 105 121 170 q 240 41 202 41 q 368 107 311 41 q 425 264 425 174 q 336 449 425 378 q 103 520 248 520 z "},"6":{"ha":694,"x_min":33,"x_max":711,"o":"m 711 915 l 711 915 l 711 915 q 319 574 439 817 q 369 588 352 585 q 411 592 387 592 q 560 531 501 592 q 620 348 620 471 q 518 90 620 196 q 281 -15 417 -15 q 33 286 33 -15 q 216 707 33 511 q 703 948 399 904 l 703 948 l 711 915 m 186 133 q 268 28 186 28 q 393 195 345 28 q 442 441 442 363 q 353 536 442 536 q 298 522 314 536 q 262 457 281 508 q 186 133 186 250 z "},"7":{"ha":694,"x_min":73,"x_max":732,"o":"m 203 933 l 732 933 l 732 933 l 200 0 l 73 0 l 534 777 l 534 777 l 322 777 q 182 747 224 777 q 117 673 141 717 l 81 673 l 203 933 z "},"8":{"ha":694,"x_min":5,"x_max":667,"o":"m 260 480 l 260 480 q 172 601 191 552 q 153 700 153 650 q 228 881 153 809 q 420 953 304 953 q 593 901 518 953 q 667 756 667 849 q 616 625 667 675 q 462 530 564 574 l 462 530 q 587 275 587 410 q 498 64 587 144 q 285 -15 411 -15 q 78 51 151 -15 q 5 213 5 117 q 67 368 5 304 q 260 480 130 432 m 294 450 l 294 450 q 142 199 142 349 q 179 73 142 118 q 283 28 217 28 q 388 80 349 28 q 428 204 428 133 q 399 313 428 267 q 294 450 370 359 m 434 564 l 434 564 q 515 669 494 627 q 536 761 536 711 q 504 871 536 832 q 424 910 471 910 q 338 870 369 910 q 308 770 308 831 q 434 564 308 680 z "},"9":{"ha":694,"x_min":-16,"x_max":662,"o":"m -8 -15 l -16 18 l -16 18 l -16 18 q 373 366 254 117 q 281 346 316 346 q 140 404 205 346 q 75 578 75 461 q 173 842 75 732 q 414 953 271 953 q 600 872 538 953 q 662 650 662 792 q 477 225 662 424 q -8 -15 292 26 l -8 -15 m 253 498 q 344 406 253 406 q 416 441 396 406 q 468 578 436 477 q 509 804 509 710 q 444 910 509 910 q 302 743 351 910 q 253 498 253 577 z "}," ":{"ha":347,"x_min":0,"x_max":0,"o":""},"!":{"ha":541,"x_min":64,"x_max":485,"o":"m 64 83 q 94 154 64 124 q 165 184 123 184 q 239 154 208 184 q 270 83 270 124 q 243 14 270 44 q 163 -15 216 -15 q 94 14 123 -15 q 64 83 64 42 m 245 288 l 203 297 q 279 821 271 644 q 393 958 284 958 q 456 932 429 958 q 485 858 485 907 q 462 770 485 813 q 245 288 334 526 z "},"\"":{"ha":771,"x_min":187,"x_max":745,"o":"m 606 556 l 549 556 q 564 745 554 632 q 584 886 575 859 q 616 934 592 910 q 680 958 640 958 q 727 937 710 958 q 745 888 745 916 q 713 800 745 870 l 606 556 m 245 556 l 187 556 q 203 745 193 632 q 222 886 214 859 q 254 934 231 910 q 318 958 279 958 q 366 937 349 958 q 383 888 383 916 q 352 800 383 870 l 245 556 z "},"#":{"ha":694,"x_min":-47,"x_max":732,"o":"m -31 0 l -31 0 l 85 293 l 85 293 l -47 293 l -20 394 l 127 394 l 127 394 l 199 578 l 199 578 l 73 578 l 100 680 l 239 680 l 239 680 l 360 977 l 360 977 l 360 977 l 469 977 l 349 680 l 349 680 l 500 680 l 500 680 l 621 977 l 729 977 l 610 680 l 610 680 l 732 680 l 704 578 l 567 578 l 567 578 l 497 394 l 497 394 l 615 394 l 587 293 l 456 293 l 456 293 l 338 0 l 230 0 l 346 293 l 346 293 l 195 293 l 195 293 l 78 0 l 78 0 l 78 0 l -31 0 m 237 394 l 237 394 l 387 394 l 387 394 l 459 578 l 459 578 l 307 578 l 307 578 l 237 394 z "},"$":{"ha":694,"x_min":-28,"x_max":700,"o":"m 296 427 l 296 427 q 157 547 202 491 q 111 678 111 604 q 189 859 111 785 q 391 933 267 933 l 391 933 q 439 929 412 933 l 439 929 l 465 1020 l 465 1020 l 534 1020 l 506 920 l 506 920 q 610 888 557 912 q 700 835 664 864 l 642 651 l 611 658 l 611 684 q 494 872 611 842 l 494 872 l 408 572 l 408 572 q 576 399 544 454 q 608 277 608 344 q 516 82 608 164 q 294 0 424 0 l 294 0 q 253 0 280 0 l 253 0 l 212 -152 l 212 -152 l 139 -152 l 139 -152 l 180 -1 l 180 9 q 60 53 111 24 q -28 119 10 81 l 31 315 l 61 307 l 61 307 q 95 137 61 191 q 196 58 129 84 l 196 58 l 296 427 m 356 382 l 356 382 l 264 45 l 264 45 q 284 45 277 45 q 404 90 352 45 q 456 224 456 135 q 356 382 456 311 m 425 884 l 425 884 q 399 888 416 888 q 292 854 335 888 q 250 755 250 820 q 348 609 250 680 l 348 609 l 425 884 z "},"%":{"ha":1157,"x_min":56,"x_max":1110,"o":"m 529 824 l 529 824 q 532 799 532 814 q 448 535 532 658 q 233 412 364 412 q 111 467 165 412 q 56 603 56 521 q 157 844 56 740 q 361 948 258 948 q 477 909 422 948 q 619 870 531 870 q 846 967 741 870 l 902 967 l 351 -9 l 273 -9 l 760 852 l 760 852 q 593 817 659 817 q 529 824 574 817 m 399 879 q 280 751 343 879 q 217 542 217 625 q 288 476 217 476 q 415 576 349 476 q 481 791 481 677 q 470 840 481 835 q 441 852 458 844 q 420 867 433 857 q 399 879 408 879 m 634 172 q 730 409 634 297 q 943 521 825 521 q 1072 471 1033 521 q 1110 353 1110 422 q 1028 107 1110 229 q 817 -15 947 -15 q 684 40 734 -15 q 634 172 634 95 m 795 129 q 870 49 795 49 q 994 149 928 49 q 1060 351 1060 250 q 1042 420 1060 389 q 989 452 1025 452 q 859 323 923 452 q 795 129 795 194 z "},"&":{"ha":1080,"x_min":6,"x_max":972,"o":"m 335 539 l 335 539 q 321 668 321 623 q 391 874 321 791 q 580 958 461 958 l 580 958 q 714 916 656 958 q 772 804 772 876 q 517 559 772 658 l 517 559 q 642 237 546 395 l 642 237 q 745 416 745 366 q 669 471 745 458 l 669 506 l 962 506 l 962 471 q 878 439 909 463 q 814 371 848 416 q 676 190 739 277 l 676 190 q 829 85 753 85 q 937 138 882 85 l 972 109 q 855 5 909 34 q 734 -24 801 -24 q 537 61 624 -24 l 537 61 q 267 -24 420 -24 q 84 35 163 -24 q 6 218 6 94 q 71 380 6 311 q 235 492 137 448 l 335 539 m 347 482 l 347 482 q 221 385 252 435 q 191 267 191 335 q 235 138 191 201 q 364 74 279 74 q 498 112 420 74 l 498 112 q 347 482 390 282 m 506 608 l 506 608 q 660 811 660 690 q 588 911 660 911 q 490 745 490 911 q 506 608 490 702 z "},"'":{"ha":386,"x_min":176,"x_max":372,"o":"m 234 556 l 176 556 q 192 745 182 632 q 212 886 203 859 q 243 934 220 910 q 307 958 268 958 q 355 937 338 958 q 372 888 372 916 q 341 800 372 870 l 234 556 z "},"(":{"ha":463,"x_min":41,"x_max":476,"o":"m 267 -225 l 235 -244 q 41 282 41 22 q 143 658 41 496 q 450 958 245 819 l 476 929 q 238 582 303 770 q 172 131 172 393 q 267 -225 172 -52 z "},")":{"ha":463,"x_min":-61,"x_max":374,"o":"m 148 939 l 180 958 q 374 432 374 692 q 272 56 374 218 q -35 -244 170 -104 l -61 -215 q 177 132 112 -56 q 243 583 243 321 q 148 939 243 766 z "},"*":{"ha":694,"x_min":90,"x_max":638,"o":"m 351 686 l 351 686 l 351 692 q 323 803 351 752 q 294 886 294 858 q 312 937 294 916 q 366 958 330 958 q 417 939 399 958 q 435 881 435 922 q 405 801 435 854 q 377 697 377 752 l 377 686 l 389 678 q 490 785 439 711 q 566 838 525 838 q 618 817 600 838 q 638 770 638 795 q 584 700 638 719 q 505 691 570 695 q 399 657 451 688 l 399 644 q 446 625 419 634 q 501 613 474 616 q 575 608 522 612 q 638 535 638 603 q 621 487 638 507 q 566 467 604 467 q 532 476 547 467 q 500 506 516 485 l 456 566 q 387 625 427 606 l 377 619 q 407 496 380 554 q 435 420 435 441 q 412 369 435 390 q 359 348 390 348 q 313 369 334 348 q 294 423 294 391 q 322 501 294 450 q 351 619 351 551 l 351 619 l 340 625 q 235 519 283 589 q 198 478 214 489 q 162 467 182 467 q 111 486 132 467 q 90 534 90 504 q 98 568 90 551 q 130 599 107 585 q 190 612 147 610 q 255 618 212 614 q 329 646 299 624 l 329 659 q 162 703 286 682 q 90 768 90 712 q 106 819 90 800 q 157 838 122 838 q 237 787 203 838 q 300 704 284 718 q 342 680 317 690 l 351 686 z "},"+":{"ha":791,"x_min":43,"x_max":751,"o":"m 43 414 l 336 414 l 336 707 l 458 707 l 458 414 l 751 414 l 751 292 l 458 292 l 458 -1 l 336 -1 l 336 292 l 43 292 l 43 414 z "},",":{"ha":347,"x_min":-90,"x_max":193,"o":"m -71 -261 l -90 -229 q 33 -146 -7 -186 q 75 -66 75 -107 q 53 -28 75 -46 q 5 14 32 -10 q -22 79 -22 39 q 4 154 -22 125 q 77 184 31 184 q 159 149 124 184 q 193 52 193 113 q 123 -123 193 -41 q -71 -261 54 -204 z "},"-":{"ha":463,"x_min":3,"x_max":372,"o":"m 3 229 l 35 389 l 372 389 l 340 229 l 3 229 z "},".":{"ha":347,"x_min":-11,"x_max":195,"o":"m -11 88 q 20 161 -11 132 q 94 189 50 189 q 165 161 135 189 q 195 88 195 134 q 168 14 195 45 q 90 -16 140 -16 q 16 14 44 -16 q -11 88 -11 45 z "},"/":{"ha":386,"x_min":-90,"x_max":474,"o":"m -90 -24 l 352 958 l 474 958 l 32 -24 l -90 -24 z "},":":{"ha":463,"x_min":34,"x_max":368,"o":"m 163 538 q 193 611 163 583 q 267 640 224 640 q 338 612 309 640 q 368 538 368 584 q 341 465 368 495 q 264 434 314 434 q 190 465 218 434 q 163 538 163 495 m 34 88 q 64 161 34 132 q 138 189 95 189 q 210 161 180 189 q 239 88 239 134 q 212 14 239 45 q 135 -16 185 -16 q 61 14 89 -16 q 34 88 34 45 z "},";":{"ha":463,"x_min":-41,"x_max":368,"o":"m -22 -261 l -41 -229 q 82 -146 41 -186 q 123 -66 123 -107 q 102 -28 123 -46 q 54 14 81 -10 q 27 79 27 39 q 53 154 27 125 q 125 184 79 184 q 208 149 173 184 q 242 52 242 113 q 172 -123 242 -41 q -22 -261 102 -204 m 163 538 q 193 611 163 583 q 267 640 224 640 q 338 612 309 640 q 368 538 368 584 q 341 465 368 495 q 264 434 314 434 q 190 465 218 434 q 163 538 163 495 z "},"<":{"ha":791,"x_min":42,"x_max":747,"o":"m 747 718 l 42 404 l 42 298 l 747 -16 l 747 106 l 202 351 l 202 351 l 747 596 l 747 718 z "},"=":{"ha":791,"x_min":43,"x_max":749,"o":"m 43 273 l 749 273 l 749 151 l 43 151 l 43 273 m 43 558 l 749 558 l 749 436 l 43 436 l 43 558 z "},">":{"ha":791,"x_min":44,"x_max":749,"o":"m 44 718 l 749 404 l 749 298 l 44 -16 l 44 106 l 589 351 l 589 351 l 44 596 l 44 718 z "},"?":{"ha":694,"x_min":109,"x_max":654,"o":"m 208 -24 q 138 4 168 -24 q 109 73 109 33 q 138 144 109 115 q 210 175 168 175 q 283 144 253 175 q 315 73 315 115 q 288 5 315 35 q 208 -24 260 -24 m 273 283 l 231 293 q 324 509 237 399 q 460 701 443 655 q 478 798 478 748 q 379 911 478 911 q 321 896 349 911 q 294 860 294 882 q 315 821 294 850 q 336 762 336 791 q 311 705 336 728 q 252 682 287 682 q 191 707 216 682 q 166 772 166 734 q 231 899 166 845 q 405 953 296 953 q 590 897 526 953 q 654 751 654 840 q 597 606 654 665 q 425 475 541 548 q 319 382 342 420 q 273 283 297 345 z "},"@":{"ha":1156,"x_min":87,"x_max":1070,"o":"m 1070 544 q 998 315 1070 425 q 809 206 927 206 q 715 239 748 206 q 682 304 682 272 l 682 304 q 511 206 598 206 q 414 248 453 206 q 376 376 376 290 q 457 606 376 494 q 661 720 538 720 q 714 706 689 720 q 762 644 739 693 l 778 701 l 877 701 l 786 364 q 779 320 779 338 q 831 258 779 258 q 955 342 903 258 q 1007 543 1007 427 q 889 792 1007 681 q 607 904 771 904 q 322 773 431 904 q 213 430 213 643 q 332 157 213 270 q 625 43 452 43 q 901 109 758 43 l 918 60 q 623 -22 746 -22 q 236 120 386 -22 q 87 445 87 262 q 233 812 87 667 q 590 958 379 958 q 937 838 804 958 q 1070 544 1070 718 m 736 566 q 674 654 736 654 q 544 574 608 654 q 481 389 481 494 q 566 271 481 271 q 688 380 640 271 q 736 566 736 489 z "},"A":{"ha":926,"x_min":-92,"x_max":822,"o":"m 537 953 l 537 953 l 572 953 l 704 160 q 732 63 716 85 q 822 35 749 41 l 822 0 l 401 0 l 401 35 q 479 51 448 35 q 509 115 509 67 q 507 160 509 140 l 488 292 l 488 292 l 193 292 l 193 292 l 112 149 q 90 85 90 111 q 179 35 90 35 l 179 0 l 179 0 l -92 0 l -92 35 q -33 64 -57 41 q 23 134 -7 87 l 537 953 m 224 347 l 224 347 l 479 347 l 479 347 l 429 685 l 429 685 l 224 347 m 551 1012 l 551 1012 l 551 1012 m 500 0 l 500 0 l 500 0 m 0 958 l 0 958 l 0 958 z "},"B":{"ha":926,"x_min":-32,"x_max":869,"o":"m 163 933 l 543 933 q 869 734 869 933 q 810 589 869 646 q 608 497 753 533 q 757 410 719 458 q 795 290 795 361 q 684 73 795 146 q 389 0 572 0 l -32 0 l -32 0 l -32 35 q 47 68 27 43 q 80 139 67 94 l 249 763 q 264 840 264 817 q 163 899 264 899 l 163 933 m 472 826 l 386 517 q 602 579 539 517 q 665 752 665 642 q 543 888 665 888 q 495 876 509 888 q 472 826 481 863 m 376 472 l 286 135 q 277 87 277 104 q 357 45 277 45 q 517 121 454 45 q 582 317 582 197 q 537 434 582 396 q 376 472 492 472 z "},"C":{"ha":926,"x_min":45,"x_max":942,"o":"m 760 214 l 801 184 q 422 -24 663 -24 q 152 73 260 -24 q 45 340 45 172 q 210 770 45 583 q 610 958 376 958 q 760 936 694 958 q 846 914 827 914 q 875 924 864 914 q 901 958 886 933 l 942 958 l 872 632 l 827 640 l 827 696 q 779 854 827 800 q 645 909 731 909 q 375 705 492 909 q 258 298 258 503 q 314 112 258 176 q 464 49 370 49 q 760 214 627 49 m 679 1012 l 679 1012 l 679 1012 m 367 0 l 367 0 l 367 0 z "},"D":{"ha":1003,"x_min":-64,"x_max":956,"o":"m -64 0 l -64 35 q 14 67 -6 43 q 48 139 35 92 l 208 732 q 233 842 233 820 q 218 880 233 869 q 131 899 203 890 l 131 933 l 537 933 q 846 836 736 933 q 956 547 956 738 q 784 159 956 318 q 331 0 612 0 l -64 0 m 245 98 q 264 56 245 68 q 330 45 283 45 q 635 212 519 45 q 752 631 752 379 q 526 888 752 888 q 462 871 477 888 q 440 829 447 854 l 272 203 q 255 143 265 174 q 245 98 245 112 m 574 1012 l 574 1012 l 574 1012 m 0 958 l 0 958 l 0 958 z "},"E":{"ha":926,"x_min":-38,"x_max":901,"o":"m -38 0 l -38 0 l -38 35 q 45 71 27 41 q 74 139 62 100 l 241 762 q 255 842 255 814 q 228 887 255 878 q 157 899 201 897 l 157 933 l 901 933 l 840 673 l 805 680 l 805 680 q 740 850 805 813 q 543 888 675 888 q 484 873 500 888 q 461 829 469 859 l 380 517 l 438 517 q 577 547 548 521 q 632 621 606 574 l 656 669 l 694 663 l 592 277 l 554 283 q 557 345 557 317 q 517 454 557 437 q 395 472 477 472 l 370 472 l 285 174 q 266 93 266 106 q 357 45 266 45 q 773 271 646 45 l 808 264 l 722 0 l -38 0 m 552 1012 l 552 1012 l 552 1012 m 568 0 l 568 0 l 568 0 m 0 958 l 0 958 l 0 958 z "},"F":{"ha":926,"x_min":-19,"x_max":914,"o":"m 176 899 l 176 933 l 914 933 l 854 673 l 819 680 l 819 680 q 755 849 819 810 q 567 888 692 888 q 508 873 522 888 q 485 823 494 859 l 399 517 q 584 551 539 517 q 670 669 629 585 l 708 663 l 606 277 l 568 283 q 571 343 571 317 q 528 448 571 423 q 389 472 485 472 l 313 188 q 294 100 294 117 q 393 35 294 35 l 393 0 l -19 0 l -19 0 l -19 35 q 62 71 44 45 q 93 143 80 97 l 263 760 q 277 840 277 809 q 267 876 277 865 q 208 894 256 887 l 176 899 z "},"G":{"ha":1003,"x_min":28,"x_max":980,"o":"m 903 958 l 947 958 l 878 654 l 836 659 l 836 659 q 638 910 836 910 q 361 718 480 910 q 242 284 242 526 q 304 90 242 155 q 467 24 366 24 q 612 77 580 24 l 663 252 q 687 372 687 335 q 660 415 687 404 q 578 427 633 427 l 578 462 l 980 462 l 980 462 l 980 427 q 905 399 923 427 q 871 316 886 372 l 806 62 l 767 43 q 451 -24 629 -24 q 145 74 262 -24 q 28 355 28 172 q 198 772 28 588 q 612 958 368 958 q 762 937 698 958 q 846 916 827 916 q 877 924 865 916 q 903 958 890 932 m 705 1012 l 705 1012 l 705 1012 m 519 0 l 519 0 l 519 0 z "},"H":{"ha":1080,"x_min":-32,"x_max":1107,"o":"m 387 518 l 715 518 l 780 760 q 794 839 794 812 q 768 884 794 873 q 694 899 742 895 l 694 933 l 1107 933 l 1107 899 q 1029 869 1049 890 q 992 790 1008 850 l 837 227 q 807 91 807 118 q 909 35 807 35 l 909 0 l 464 0 l 464 35 q 559 57 524 35 q 612 143 595 80 l 699 457 l 372 457 l 300 201 q 277 96 277 121 q 304 46 277 58 q 380 35 332 35 l 380 0 l -32 0 l -32 35 q 50 71 33 45 q 80 143 67 96 l 248 758 q 264 840 264 817 q 239 882 264 873 q 163 899 215 892 l 163 933 l 608 933 l 608 899 q 505 871 533 899 q 463 790 476 843 l 387 518 z "},"I":{"ha":541,"x_min":-45,"x_max":562,"o":"m -45 0 l -45 0 l -45 35 q 20 56 -8 39 q 64 132 48 73 l 235 752 q 252 848 252 814 q 238 878 252 867 q 150 899 224 890 l 150 933 l 562 933 l 562 899 q 488 872 514 894 q 450 801 463 851 l 279 163 q 268 94 268 121 q 368 35 268 37 l 368 0 l -45 0 m 370 1010 l 370 1010 l 370 1010 m 174 0 l 174 0 l 174 0 m 0 956 l 0 956 l 0 956 z "},"J":{"ha":694,"x_min":-64,"x_max":728,"o":"m 316 899 l 316 933 l 728 933 l 728 899 q 647 869 671 893 q 609 793 623 844 l 435 143 q 321 -77 393 -16 q 143 -136 250 -136 q -1 -98 61 -136 q -64 3 -64 -58 q -41 72 -64 41 q 22 102 -17 102 q 89 77 66 102 q 112 15 112 51 q 96 -30 112 -14 q 80 -62 80 -46 q 90 -81 80 -75 q 121 -86 99 -86 q 173 -52 151 -86 q 230 110 196 -17 l 399 766 q 414 840 414 820 q 380 887 414 882 q 316 899 347 892 z "},"K":{"ha":926,"x_min":-28,"x_max":981,"o":"m 166 933 l 166 933 l 597 933 l 597 899 q 507 869 536 899 q 466 790 478 840 l 383 488 l 391 488 q 703 768 640 709 q 767 860 767 827 q 746 889 767 880 q 687 899 725 899 l 687 933 l 981 933 l 981 899 q 892 870 921 899 l 547 554 l 764 87 q 857 35 785 42 l 857 0 l 467 0 l 467 35 q 543 48 529 41 q 557 79 557 55 q 534 142 557 94 l 384 452 l 372 456 l 286 132 q 281 92 281 112 q 374 35 281 40 l 374 0 l 374 0 l -28 0 l -28 0 l -28 35 q 50 68 31 41 q 83 143 71 95 l 252 760 q 268 840 268 817 q 250 879 268 867 q 166 899 233 891 l 166 933 m 425 0 l 425 0 l 425 0 z "},"L":{"ha":848,"x_min":-32,"x_max":825,"o":"m -32 0 l -32 35 q 47 68 27 43 q 80 139 67 94 l 248 754 q 264 842 264 814 q 233 886 264 875 q 163 899 201 899 l 163 933 l 608 933 l 608 899 q 501 870 532 899 q 456 792 471 842 l 288 149 q 277 88 277 107 q 366 47 277 47 q 789 271 660 47 l 825 264 l 742 0 l -32 0 m 415 1012 l 415 1012 l 415 1012 m 354 0 l 354 0 l 354 0 m 0 958 l 0 958 l 0 958 z "},"M":{"ha":1235,"x_min":-41,"x_max":1266,"o":"m -41 0 l -41 0 l -41 35 q 38 82 16 47 q 90 219 60 117 l 248 762 q 265 852 265 822 q 243 888 265 878 q 166 899 221 899 l 166 933 l 472 933 l 545 267 l 545 267 l 972 933 l 1266 933 l 1266 899 q 1181 861 1201 888 q 1152 790 1162 833 l 985 177 q 970 96 970 120 q 995 47 970 60 q 1068 35 1020 35 l 1068 0 l 634 0 l 634 35 q 734 66 708 41 q 778 154 761 90 l 944 766 l 944 766 l 431 -15 l 393 -15 l 301 755 l 301 755 l 156 233 q 134 119 134 151 q 164 55 134 71 q 245 35 194 40 l 245 0 l -41 0 z "},"N":{"ha":1003,"x_min":-38,"x_max":1041,"o":"m -38 0 l -38 0 l -38 35 q 43 87 21 47 q 93 219 66 129 l 269 821 q 222 884 246 869 q 153 899 197 899 l 153 933 l 425 933 l 726 282 l 726 282 l 846 714 q 863 817 863 774 q 751 899 863 890 l 751 933 l 1041 933 l 1041 899 q 949 834 971 887 q 907 714 926 782 l 700 -24 l 662 -24 l 303 743 l 303 743 l 162 237 q 140 120 140 156 q 170 55 140 76 q 252 35 200 35 l 252 0 l -38 0 m 598 1012 l 598 1012 l 598 1012 m 392 0 l 392 0 l 392 0 m 0 958 l 0 958 l 0 958 z "},"O":{"ha":1003,"x_min":38,"x_max":969,"o":"m 38 294 q 215 750 38 543 q 635 958 392 958 q 873 866 777 958 q 969 620 969 775 q 787 186 969 398 q 376 -24 606 -24 q 130 67 221 -24 q 38 294 38 159 m 242 207 q 383 23 242 23 q 652 283 539 23 q 765 737 765 545 q 726 863 765 817 q 622 910 687 910 q 349 641 457 910 q 242 207 242 372 m 620 1012 l 620 1012 l 620 1012 z "},"P":{"ha":848,"x_min":-38,"x_max":846,"o":"m 359 450 l 286 178 q 271 96 271 121 q 296 47 271 60 q 370 35 322 35 l 370 0 l -38 0 l -38 35 q 38 64 18 44 q 74 139 58 83 l 243 757 q 258 842 258 814 q 232 885 258 878 q 157 899 205 892 l 157 933 l 555 933 q 846 713 846 933 q 748 519 846 597 q 484 443 650 443 q 359 450 422 443 m 373 494 q 430 492 411 492 q 593 569 545 492 q 642 758 642 646 q 529 888 642 888 q 479 870 490 888 q 460 822 467 852 l 373 494 z "},"Q":{"ha":1003,"x_min":38,"x_max":969,"o":"m 355 -23 q 291 -90 291 -81 q 346 -100 291 -98 q 473 -119 401 -102 q 569 -144 513 -128 q 668 -160 625 -160 q 779 -136 731 -160 q 886 -46 827 -113 l 915 -73 q 556 -285 764 -285 q 372 -254 471 -285 q 217 -223 274 -223 q 57 -263 153 -223 l 38 -230 l 255 -52 q 281 -31 275 -35 q 288 -23 288 -26 q 279 -17 288 -20 q 264 -11 272 -14 q 98 103 159 22 q 38 295 38 184 q 217 750 38 543 q 627 958 397 958 q 873 865 777 958 q 969 620 969 774 q 793 188 969 401 q 386 -24 618 -24 q 355 -23 370 -24 m 242 215 q 385 24 242 24 q 656 293 547 24 q 765 737 765 562 q 618 910 765 910 q 355 650 469 910 q 242 215 242 391 z "},"R":{"ha":926,"x_min":-41,"x_max":859,"o":"m 367 462 l 289 186 q 271 95 271 122 q 289 51 271 65 q 370 35 307 37 l 370 0 l -41 0 l -41 0 l -41 35 q 33 64 11 40 q 71 143 56 90 l 241 763 q 255 842 255 814 q 224 886 255 879 q 153 899 195 894 l 153 933 l 547 933 q 859 732 859 933 q 789 574 859 649 q 591 479 720 498 l 712 123 q 762 50 732 62 q 831 35 793 39 l 831 0 l 549 0 l 400 462 l 367 462 m 380 507 l 399 507 q 600 581 545 507 q 655 757 655 656 q 526 888 655 888 q 463 823 477 888 l 380 507 m 532 1012 l 532 1012 l 532 1012 m 381 0 l 381 0 l 381 0 m 0 958 l 0 958 l 0 958 z "},"S":{"ha":772,"x_min":-1,"x_max":726,"o":"m 50 290 l 89 288 q 142 103 89 182 q 305 24 197 24 q 434 77 387 24 q 481 203 481 129 q 391 355 481 275 q 184 553 228 499 q 140 680 140 607 q 218 879 140 800 q 423 958 296 958 q 536 936 473 958 q 623 914 600 914 q 685 952 668 914 l 726 952 l 672 675 l 634 681 q 454 909 609 909 q 345 865 382 909 q 309 755 309 821 q 334 681 309 714 q 469 559 358 648 q 650 274 650 416 q 570 54 650 134 q 326 -24 489 -24 q 188 -3 264 -24 q 98 19 112 19 q 66 9 79 19 q 41 -24 53 0 l -1 -24 l 50 290 m 439 1012 l 439 1012 l 439 1012 m 275 0 l 275 0 l 275 0 z "},"T":{"ha":848,"x_min":0,"x_max":895,"o":"m 70 0 l 70 0 l 70 35 q 176 60 149 35 q 220 144 202 85 l 420 886 q 116 682 217 886 l 81 691 l 135 933 l 895 933 l 844 662 l 808 665 l 808 665 q 762 831 808 776 q 623 886 717 886 l 623 886 l 435 196 q 419 132 424 159 q 414 91 414 106 q 442 45 414 55 q 526 35 471 35 l 526 0 l 70 0 m 547 1012 l 547 1012 l 547 1012 m 273 0 l 273 0 l 273 0 m 0 958 l 0 958 l 0 958 z "},"U":{"ha":1003,"x_min":0,"x_max":1036,"o":"m 137 899 l 137 933 l 571 933 l 571 899 q 475 873 501 899 q 437 802 450 847 l 300 298 q 283 197 283 237 q 458 54 283 54 q 619 115 550 54 q 746 378 688 176 l 834 694 q 858 819 858 779 q 743 899 858 890 l 743 933 l 1036 933 l 1036 899 q 959 859 983 888 q 898 701 935 830 l 794 341 q 649 60 737 144 q 402 -24 561 -24 q 181 41 270 -24 q 92 209 92 106 q 117 366 92 271 l 227 783 q 233 814 231 798 q 236 843 236 830 q 221 880 236 871 q 137 899 206 890 m 627 1012 l 627 1012 l 627 1012 m 457 0 l 457 0 l 457 0 m 0 958 l 0 958 l 0 958 z "},"V":{"ha":926,"x_min":90,"x_max":991,"o":"m 90 899 l 90 933 l 504 933 l 504 899 q 421 882 444 899 q 399 838 399 866 q 406 772 399 829 l 467 256 l 467 256 l 743 690 q 816 851 816 806 q 792 888 816 878 q 724 899 768 899 l 724 933 l 991 933 l 991 899 q 903 832 935 882 l 362 -24 l 317 -24 l 220 637 q 176 860 193 822 q 100 899 161 899 l 90 899 z "},"W":{"ha":1235,"x_min":90,"x_max":1305,"o":"m 90 899 l 90 933 l 90 933 l 475 933 l 475 899 q 389 825 389 894 q 395 768 389 817 l 448 316 l 448 316 l 656 750 l 656 750 l 656 750 q 633 869 656 849 q 556 899 610 888 l 556 933 l 929 933 l 929 899 q 857 875 870 894 q 843 823 843 856 q 852 716 843 802 l 900 316 l 900 316 l 1110 768 q 1133 846 1133 815 q 1046 899 1133 899 l 1046 933 l 1305 933 l 1305 899 q 1187 795 1238 899 l 795 -24 l 753 -24 l 671 660 l 671 660 l 348 -24 l 348 -24 l 307 -24 l 196 787 q 180 859 191 832 q 123 893 170 885 l 90 899 z "},"X":{"ha":926,"x_min":-48,"x_max":950,"o":"m 517 587 l 517 587 l 656 732 q 746 860 746 827 q 728 889 746 880 q 669 899 709 899 l 669 933 l 950 933 l 950 899 q 819 820 883 887 l 536 528 l 536 528 l 640 193 q 709 61 673 83 q 800 35 745 39 l 800 0 l 373 0 l 373 35 q 443 47 418 35 q 469 91 469 59 q 454 168 469 120 l 389 368 l 389 368 l 204 164 q 159 92 159 115 q 248 35 159 43 l 248 0 l 248 0 l 248 0 l -48 0 l -48 35 q 62 103 8 51 q 205 255 115 156 l 368 430 l 368 430 l 253 806 q 207 877 237 856 q 124 899 177 899 l 124 933 l 124 933 l 124 933 l 549 933 l 549 899 q 467 883 488 892 q 446 844 446 873 q 458 784 446 825 l 517 587 z "},"Y":{"ha":848,"x_min":0,"x_max":916,"o":"m 102 0 l 102 35 q 201 59 175 41 q 245 144 227 78 l 326 437 l 205 806 q 180 864 195 838 q 102 899 166 891 l 102 933 l 102 933 l 494 933 l 494 899 q 433 890 471 899 q 395 850 395 882 q 410 780 395 822 l 504 492 l 504 492 l 682 747 q 713 798 705 781 q 722 844 722 816 q 701 883 722 868 q 626 899 682 899 l 626 933 l 916 933 l 916 899 q 791 802 849 886 l 527 430 l 456 168 q 444 98 444 121 q 471 46 444 58 q 549 35 499 35 l 549 0 l 549 0 l 102 0 m 554 1012 l 554 1012 l 554 1012 m 0 958 l 0 958 l 0 958 z "},"Z":{"ha":848,"x_min":-16,"x_max":819,"o":"m 587 886 l 587 886 l 477 886 q 277 836 356 886 q 127 684 199 785 l 89 689 l 169 933 l 819 933 l 819 893 l 216 47 l 216 47 l 327 47 q 570 102 483 47 q 730 271 658 157 l 768 264 l 686 0 l -16 0 l -16 40 l 587 886 m 483 1012 l 483 1012 l 483 1012 m 0 958 l 0 958 l 0 958 z "},"[":{"ha":463,"x_min":-50,"x_max":504,"o":"m 504 939 l 494 891 l 403 891 q 347 874 356 891 q 330 825 338 857 l 124 -45 q 102 -140 102 -140 q 152 -171 102 -171 l 263 -171 l 254 -219 l 254 -219 l -50 -219 l -50 -219 l 222 939 l 222 939 l 222 939 l 504 939 z "},"\\":{"ha":386,"x_min":0,"x_max":391,"o":"m 275 -22 l 0 958 l 119 958 l 391 -22 l 275 -22 z "},"]":{"ha":463,"x_min":-80,"x_max":473,"o":"m -80 -219 l -71 -171 l 21 -171 q 77 -154 68 -171 q 94 -104 86 -137 l 300 766 q 321 860 321 860 q 272 891 321 891 l 161 891 l 170 939 l 170 939 l 473 939 l 473 939 l 202 -219 l 202 -219 l 202 -219 l -80 -219 z "},"^":{"ha":791,"x_min":94,"x_max":703,"o":"m 213 424 l 94 424 l 343 932 l 454 932 l 703 424 l 584 424 l 398 804 l 398 804 l 213 424 z "},"_":{"ha":694,"x_min":0,"x_max":694,"o":"m 0 -104 l 694 -104 l 694 -174 l 0 -174 l 0 -104 z "},"`":{"ha":463,"x_min":119,"x_max":412,"o":"m 349 716 l 179 829 q 119 906 119 869 q 137 946 119 926 q 182 966 156 966 q 262 913 222 966 l 412 716 l 349 716 m 298 716 l 298 716 l 298 716 z "},"a":{"ha":694,"x_min":-29,"x_max":634,"o":"m 349 154 q 227 12 277 44 q 121 -20 177 -20 q 11 28 51 -20 q -29 163 -29 75 q 95 476 -29 315 q 347 638 220 638 q 426 605 398 638 q 454 541 454 572 q 481 621 454 541 l 634 630 l 516 237 q 488 101 488 144 q 508 77 488 77 q 605 174 534 77 l 634 153 q 427 -22 523 -22 q 360 3 388 -22 q 332 69 332 29 q 349 154 332 95 m 146 159 q 163 100 146 120 q 205 79 182 79 q 349 233 275 79 q 422 507 422 388 q 370 579 422 579 q 221 419 297 579 q 146 159 146 259 m 429 714 l 429 714 l 429 714 m 512 0 l 512 0 l 512 0 z "},"b":{"ha":694,"x_min":-18,"x_max":622,"o":"m 270 508 q 361 606 316 573 q 468 638 408 638 q 577 593 532 638 q 622 466 622 549 q 486 134 622 288 q 177 -20 351 -20 q 49 5 117 -20 q -18 62 -18 29 q 66 376 -18 86 q 193 843 193 812 q 180 878 193 867 q 137 888 167 888 l 106 888 l 106 926 q 395 966 269 943 l 395 966 l 270 508 m 200 28 q 368 165 290 28 q 447 447 447 302 q 382 541 447 541 q 225 332 297 541 q 154 70 154 123 q 200 28 154 28 z "},"c":{"ha":616,"x_min":14,"x_max":557,"o":"m 452 197 l 492 172 q 346 14 408 49 q 218 -20 284 -20 q 69 39 125 -20 q 14 191 14 98 q 135 493 14 348 q 402 638 256 638 q 515 606 472 638 q 557 520 557 574 q 532 445 557 469 q 468 421 507 421 q 416 439 441 421 q 391 495 391 458 q 404 540 391 516 q 420 571 420 564 q 389 596 420 596 q 252 456 316 596 q 189 207 189 316 q 288 69 189 69 q 452 197 368 69 m 447 714 l 447 714 l 447 714 m 211 0 l 211 0 l 211 0 z "},"d":{"ha":694,"x_min":-29,"x_max":721,"o":"m 353 165 q 122 -20 254 -20 q 9 34 49 -20 q -29 163 -29 88 q 98 478 -29 319 q 352 638 227 638 q 454 595 407 638 l 508 798 q 517 848 517 834 q 462 888 517 888 l 430 888 l 430 926 q 721 966 604 939 l 553 371 q 482 101 482 117 q 500 80 482 80 q 541 108 515 80 q 594 178 568 136 l 626 156 q 425 -17 519 -17 q 361 3 382 -17 q 341 66 341 24 q 347 123 341 88 q 353 165 352 157 m 146 163 q 205 79 146 79 q 355 254 281 79 q 428 511 428 429 q 378 579 428 579 q 224 418 302 579 q 146 163 146 257 z "},"e":{"ha":616,"x_min":8,"x_max":552,"o":"m 191 252 q 183 186 183 214 q 279 69 183 69 q 436 197 351 69 l 476 174 q 357 27 421 74 q 220 -20 293 -20 q 70 36 132 -20 q 8 189 8 92 q 129 491 8 345 q 408 638 250 638 q 511 607 469 638 q 552 516 552 576 q 457 357 552 438 q 191 252 363 275 m 201 297 q 361 384 294 319 q 428 546 428 450 q 387 596 428 596 q 283 511 337 596 q 201 297 229 427 m 389 714 l 389 714 l 389 714 m 302 0 l 302 0 l 302 0 z "},"f":{"ha":463,"x_min":-235,"x_max":622,"o":"m 152 559 l 152 559 l 58 559 l 71 618 l 166 618 l 166 618 q 488 969 253 969 l 488 969 q 590 936 558 969 q 622 859 622 903 q 604 805 622 826 q 555 785 587 785 q 502 805 519 785 q 484 855 484 826 q 494 884 484 872 q 505 903 505 897 q 499 922 505 917 q 483 927 494 927 q 357 726 408 927 l 329 618 l 329 618 l 459 618 l 446 559 l 318 559 l 318 559 q 155 -67 215 75 q -98 -282 65 -282 l -98 -282 q -200 -252 -164 -282 q -235 -168 -235 -222 q -217 -119 -235 -140 q -162 -98 -199 -98 q -115 -117 -134 -98 q -95 -164 -95 -137 q -106 -203 -95 -186 q -116 -222 -116 -219 q -110 -236 -116 -232 q -92 -240 -104 -240 q -21 -185 -45 -240 q 36 16 3 -130 q 152 559 81 232 z "},"g":{"ha":694,"x_min":-75,"x_max":663,"o":"m 663 593 l 663 515 l 570 515 l 570 515 q 578 457 578 486 q 490 279 578 349 q 286 210 401 210 l 279 210 q 243 215 261 210 q 211 221 226 221 q 183 203 197 221 q 170 172 170 186 q 235 122 170 142 q 315 99 300 102 q 482 23 441 64 q 524 -74 524 -18 q 432 -224 524 -166 q 187 -282 340 -282 q 4 -247 83 -282 q -75 -144 -75 -211 q -38 -54 -75 -88 q 110 8 -1 -19 q 26 97 26 37 q 52 162 26 135 q 157 233 77 190 q 77 290 106 252 q 47 387 47 328 q 133 561 47 484 q 357 638 219 638 q 509 593 450 638 l 663 593 m 153 -9 q 90 -47 134 -9 q 47 -126 47 -84 q 90 -202 47 -170 q 196 -235 132 -235 q 332 -209 290 -235 q 373 -138 373 -183 q 309 -58 373 -84 q 215 -26 265 -42 q 153 -9 165 -9 m 209 336 q 271 252 209 252 q 374 340 331 252 q 416 507 416 429 q 354 596 416 596 q 250 503 291 596 q 209 336 209 409 m 364 714 l 364 714 l 364 714 z "},"h":{"ha":772,"x_min":-18,"x_max":686,"o":"m 260 389 q 411 577 342 516 q 549 638 480 638 q 654 531 654 638 q 637 445 654 499 l 562 209 q 537 132 546 157 q 528 102 529 108 q 533 82 528 87 q 550 77 538 77 q 654 186 574 77 l 686 166 q 562 15 612 50 q 457 -20 513 -20 q 363 68 363 -20 q 391 207 363 123 l 468 445 q 485 507 485 498 q 456 538 485 538 q 317 415 406 538 q 149 0 229 292 l -18 0 l 191 772 q 207 845 207 828 q 192 880 207 869 q 144 890 178 890 q 119 888 127 890 l 119 926 q 408 966 265 939 l 408 966 l 260 389 z "},"i":{"ha":386,"x_min":3,"x_max":361,"o":"m 296 186 l 328 167 q 199 14 250 47 q 100 -20 150 -20 q 3 73 3 -20 q 25 186 3 104 l 94 442 q 111 517 111 503 q 39 561 111 561 l 29 561 l 29 598 q 310 638 199 610 l 310 638 l 186 186 q 170 98 170 125 q 176 83 170 89 q 192 77 182 77 q 296 186 224 77 m 173 852 q 199 918 173 890 q 266 945 227 945 q 332 917 304 945 q 361 850 361 890 q 335 786 361 815 q 262 758 309 758 q 203 782 234 758 q 173 852 173 806 m 178 0 l 178 0 l 178 0 z "},"j":{"ha":386,"x_min":-262,"x_max":389,"o":"m 389 850 q 363 786 389 815 q 290 758 338 758 q 232 782 262 758 q 201 852 201 806 q 228 918 201 890 q 294 945 255 945 q 361 917 333 945 q 389 850 389 890 m 335 638 l 174 20 q -111 -282 94 -282 q -219 -254 -176 -282 q -262 -174 -262 -227 q -244 -125 -262 -149 q -197 -101 -227 -101 q -147 -121 -168 -101 q -127 -171 -127 -141 q -138 -205 -127 -189 q -148 -224 -148 -220 q -117 -240 -148 -240 q -70 -212 -94 -240 q -17 -77 -46 -184 l 119 444 q 132 519 132 493 q 111 555 132 549 q 42 561 90 561 l 42 598 q 335 638 226 612 z "},"k":{"ha":694,"x_min":-32,"x_max":673,"o":"m 385 618 l 673 618 l 673 581 q 519 507 596 570 l 395 403 l 395 403 q 456 140 433 197 q 505 83 479 83 q 591 168 539 83 l 623 153 q 524 16 564 47 q 440 -16 486 -16 q 327 62 366 -16 q 263 294 288 141 l 263 294 l 206 256 l 138 0 l -32 0 l -32 0 l 185 783 q 196 843 196 826 q 175 879 196 869 q 125 888 154 888 l 109 888 l 109 926 q 397 966 251 939 l 397 966 l 228 328 l 228 328 q 345 421 235 333 q 456 549 456 509 q 385 581 456 578 l 385 618 m 237 0 l 237 0 l 237 0 z "},"l":{"ha":386,"x_min":3,"x_max":402,"o":"m 299 186 l 331 167 q 203 14 252 47 q 102 -20 156 -20 q 3 73 3 -20 q 33 220 3 112 l 172 726 q 199 847 199 823 q 182 880 199 872 q 111 888 167 888 l 111 926 q 402 966 255 936 l 402 966 l 195 223 q 170 98 170 132 q 176 83 170 89 q 192 77 182 77 q 299 186 225 77 m 357 1042 l 357 1042 l 357 1042 m 82 0 l 82 0 l 82 0 z "},"m":{"ha":1080,"x_min":-18,"x_max":1004,"o":"m 241 367 q 427 595 366 553 q 545 638 488 638 q 608 614 582 638 q 635 551 635 591 q 602 410 635 496 q 762 602 709 565 q 876 638 814 638 q 954 606 927 638 q 980 531 980 575 q 917 296 980 476 q 871 161 886 208 q 856 96 856 113 q 860 83 856 89 q 878 77 864 77 l 881 77 q 917 102 896 77 q 972 176 939 127 l 1004 158 q 888 15 939 50 q 783 -20 838 -20 q 689 72 689 -20 q 751 315 689 133 q 813 507 813 498 q 783 538 813 538 q 656 430 731 538 q 485 0 581 321 l 318 0 l 437 376 q 471 507 471 481 q 446 538 471 538 q 310 410 398 538 q 149 0 222 281 l -18 0 l 86 366 q 125 524 125 496 q 65 561 125 561 l 48 561 l 48 598 q 134 605 48 598 q 326 638 221 612 l 326 638 l 241 367 z "},"n":{"ha":772,"x_min":-8,"x_max":680,"o":"m -8 0 l 91 353 q 135 526 135 507 q 118 554 135 548 q 58 561 102 561 l 58 598 q 336 638 172 598 l 336 638 l 249 367 q 396 564 330 490 q 553 638 463 638 q 654 526 654 638 q 592 294 654 475 q 541 140 549 174 q 532 103 532 108 q 536 82 532 87 q 554 77 541 77 q 648 176 581 77 l 680 158 q 570 18 620 56 q 464 -20 519 -20 q 366 72 366 -20 q 426 314 366 131 q 475 458 463 425 q 487 506 487 492 q 478 530 487 523 q 454 538 470 538 q 331 425 408 538 q 204 161 254 311 q 159 0 179 81 l -8 0 m 422 714 l 422 714 l 422 714 m 298 0 l 298 0 l 298 0 z "},"o":{"ha":694,"x_min":-5,"x_max":614,"o":"m -5 189 q 115 496 -5 355 q 399 638 236 638 q 551 581 488 638 q 614 422 614 525 q 498 123 614 265 q 220 -20 383 -20 q 62 34 131 -20 q -5 189 -5 88 m 159 117 q 231 22 159 22 q 382 203 315 22 q 450 509 450 383 q 383 596 450 596 q 224 417 291 596 q 159 117 159 238 m 409 714 l 409 714 l 409 714 z "},"p":{"ha":694,"x_min":-167,"x_max":614,"o":"m -167 -282 l -167 -282 l -167 -245 q -93 -220 -109 -245 q -61 -135 -77 -195 l 92 456 q 106 523 106 510 q 92 553 106 547 q 54 561 78 561 l 32 561 l 32 561 l 32 598 q 299 638 116 608 l 299 638 l 248 486 q 464 638 353 638 q 614 461 614 638 q 500 145 614 311 q 234 -20 387 -20 q 188 -12 213 -20 q 142 11 163 -3 l 100 -149 q 90 -200 90 -186 q 110 -236 90 -227 q 180 -245 130 -245 l 180 -282 l -167 -282 m 156 80 q 172 43 156 58 q 209 28 187 28 q 362 182 285 28 q 439 469 439 336 q 389 541 439 541 q 220 330 285 541 q 156 80 156 119 z "},"q":{"ha":694,"x_min":3,"x_max":655,"o":"m 147 -282 l 147 -245 q 235 -223 212 -245 q 271 -155 258 -201 l 356 132 q 152 -20 257 -20 q 3 173 3 -20 q 127 477 3 316 q 378 638 252 638 q 450 612 422 638 q 483 541 479 587 l 505 618 l 655 618 l 472 -21 q 425 -204 425 -189 q 492 -245 425 -245 l 517 -245 l 517 -282 l 147 -282 m 178 165 q 237 80 178 80 q 383 241 315 80 q 452 507 452 404 q 404 579 452 579 q 254 420 330 579 q 178 165 178 260 z "},"r":{"ha":541,"x_min":-29,"x_max":535,"o":"m -29 0 l -29 0 l 63 309 q 114 517 114 479 q 96 552 114 543 q 37 561 78 561 l 37 561 l 37 598 q 141 608 37 598 q 315 638 245 618 l 315 638 l 235 389 q 379 604 336 570 q 456 638 422 638 q 513 613 492 638 q 535 547 535 589 q 513 473 535 504 q 452 443 492 443 q 400 471 424 443 q 387 487 394 476 q 372 498 379 498 q 286 403 341 498 q 186 159 231 307 q 138 0 155 52 l -29 0 m 355 714 l 355 714 l 355 714 m 101 0 l 101 0 l 101 0 z "},"s":{"ha":541,"x_min":3,"x_max":494,"o":"m 35 208 l 72 204 q 117 70 80 118 q 205 22 153 22 q 264 45 244 22 q 286 94 286 68 q 275 146 286 124 q 235 204 264 170 q 106 382 123 338 q 90 466 90 428 q 140 589 90 541 q 281 638 191 638 q 355 623 317 638 q 415 608 394 608 q 454 636 436 608 l 494 636 l 462 421 l 425 424 q 300 593 397 593 q 240 571 258 593 q 222 517 222 549 q 236 473 222 497 q 272 422 250 449 q 392 260 366 303 q 418 165 418 218 q 359 31 418 82 q 212 -20 300 -20 q 134 -6 176 -20 q 79 8 92 8 q 41 -20 49 8 l 3 -20 l 35 208 m 357 714 l 357 714 l 357 714 m 197 0 l 197 0 l 197 0 z "},"t":{"ha":386,"x_min":-16,"x_max":386,"o":"m 386 618 l 386 559 l 275 559 l 172 190 q 154 101 154 124 q 159 83 154 90 q 176 77 165 77 q 231 121 195 77 q 278 186 267 165 l 310 167 q 178 11 228 42 q 82 -20 130 -20 q 14 2 43 -20 q -16 71 -16 24 l -16 71 q 19 231 -16 109 l 111 559 l 43 559 l 43 609 q 296 825 199 671 l 345 825 l 289 618 l 386 618 m 132 0 l 132 0 l 132 0 z "},"u":{"ha":772,"x_min":0,"x_max":688,"o":"m 519 618 l 683 618 q 602 341 642 479 q 540 104 540 132 q 562 77 540 77 q 659 176 592 77 l 688 157 q 467 -20 589 -20 q 398 3 421 -20 q 376 61 376 26 q 405 208 376 110 q 253 29 313 78 q 130 -20 193 -20 q 50 8 78 -20 q 21 87 21 36 q 71 309 21 137 q 124 518 124 482 q 47 561 124 561 l 47 598 q 203 615 122 601 q 338 638 285 629 l 338 638 l 203 204 q 185 115 185 145 q 216 80 185 80 q 312 151 253 80 q 379 246 353 199 q 519 618 444 359 m 465 714 l 465 714 l 465 714 m 555 0 l 555 0 l 555 0 m 0 638 l 0 638 l 0 638 z "},"v":{"ha":616,"x_min":21,"x_max":557,"o":"m 557 541 q 156 -20 557 354 l 119 -20 l 127 220 q 119 384 127 312 q 94 529 108 498 q 45 561 79 561 l 21 561 l 21 598 q 235 638 87 608 q 281 176 274 508 l 281 176 q 457 436 457 371 q 427 490 457 455 q 396 561 396 526 q 418 615 396 592 q 471 638 439 638 q 528 612 499 638 q 557 541 557 587 z "},"w":{"ha":926,"x_min":21,"x_max":852,"o":"m 280 258 l 280 258 q 498 638 350 385 l 536 638 l 581 181 l 581 181 q 746 429 746 373 q 717 489 746 452 q 688 555 688 526 q 711 614 688 589 q 764 638 736 638 q 826 614 800 638 q 852 551 852 589 q 472 -20 852 374 l 435 -20 l 404 376 l 404 376 q 291 172 367 300 q 167 -20 216 43 l 130 -20 q 132 98 133 55 q 104 477 132 338 q 80 547 93 533 q 21 561 66 561 l 21 561 l 21 598 q 235 638 91 608 q 280 258 277 477 z "},"x":{"ha":694,"x_min":-64,"x_max":652,"o":"m 573 479 q 530 493 553 479 q 490 507 507 507 q 436 474 465 507 q 368 384 408 441 l 368 384 l 410 167 q 467 87 426 87 q 557 169 492 87 l 586 149 q 380 -20 470 -20 q 241 196 277 -20 l 241 196 l 195 121 q 109 8 145 37 q 23 -20 74 -20 q -39 2 -13 -20 q -64 62 -64 24 q -43 117 -64 94 q 16 140 -22 140 q 66 125 45 140 q 99 111 89 111 q 173 178 132 111 l 226 263 l 226 263 l 191 447 q 170 527 184 484 q 107 570 155 570 q 58 567 86 570 l 58 604 l 291 638 q 354 448 323 593 l 354 448 q 482 602 436 567 q 576 638 528 638 q 630 612 608 638 q 652 556 652 585 q 629 501 652 524 q 573 479 606 479 z "},"y":{"ha":616,"x_min":-134,"x_max":539,"o":"m 18 604 q 224 638 140 615 l 224 638 q 332 157 275 517 l 332 157 q 449 429 449 389 q 410 488 449 458 q 372 563 372 515 q 396 614 372 590 q 454 638 420 638 q 515 615 492 638 q 539 547 539 593 q 355 85 539 399 q 134 -203 228 -123 q -46 -282 41 -282 q -109 -256 -84 -282 q -134 -198 -134 -229 q -112 -146 -134 -170 q -58 -122 -90 -122 q 12 -148 -30 -122 q 66 -171 53 -171 q 145 -100 98 -171 q 192 41 192 -28 l 192 41 l 192 41 q 161 244 192 86 q 119 427 134 376 q 77 544 93 524 q 18 567 60 567 l 18 567 l 18 604 m 366 714 l 366 714 l 366 714 m 0 638 l 0 638 l 0 638 z "},"z":{"ha":541,"x_min":-61,"x_max":514,"o":"m -61 -2 l 350 485 l 350 485 l 148 485 q 56 401 88 485 l 16 406 l 77 618 l 514 618 l 514 604 l 121 144 l 121 144 q 185 109 151 136 q 250 29 220 82 l 283 -30 q 335 -71 305 -71 q 358 -66 351 -71 q 366 -48 366 -62 q 352 -23 366 -41 q 339 18 339 -5 q 359 60 339 39 q 408 83 378 83 q 461 62 440 83 q 482 6 482 43 q 441 -75 482 -38 q 337 -113 401 -113 q 170 -53 254 -113 q 49 7 87 7 q 12 -5 28 7 q -26 -33 -5 -18 l -61 -2 m 298 714 l 298 714 l 298 714 m 0 638 l 0 638 l 0 638 z "},"{":{"ha":484,"x_min":11,"x_max":608,"o":"m 11 348 l 11 348 q 156 414 123 374 q 206 519 189 453 l 206 519 l 267 757 q 353 901 289 847 q 590 955 418 955 l 608 955 l 604 938 q 472 881 512 920 q 412 763 433 843 l 412 763 l 355 541 q 294 414 334 458 q 146 348 255 372 l 146 348 l 168 340 q 243 305 216 325 q 271 235 271 286 q 227 54 271 204 q 184 -137 184 -95 q 293 -243 184 -229 l 289 -260 q 91 -227 139 -260 q 43 -130 43 -194 q 86 62 43 -89 q 130 243 130 216 q 11 348 130 321 z "},"|":{"ha":306,"x_min":87,"x_max":209,"o":"m 87 956 l 209 956 l 209 -24 l 87 -24 l 87 956 z "},"}":{"ha":484,"x_min":-184,"x_max":412,"o":"m 412 348 l 412 348 q 275 283 304 318 q 228 177 245 248 l 174 -62 q 46 -227 141 -182 q -184 -260 -26 -260 l -180 -243 q -44 -187 -89 -229 q 22 -68 1 -145 l 76 164 q 144 296 100 264 q 277 348 189 327 l 250 357 q 178 400 193 378 q 163 461 163 422 q 174 523 163 475 q 205 640 184 571 q 250 831 250 789 q 130 938 250 922 l 134 955 q 338 922 287 955 q 391 825 391 890 q 347 632 391 783 q 304 452 304 479 q 412 348 304 374 z "},"~":{"ha":791,"x_min":75,"x_max":715,"o":"m 75 333 q 248 460 137 460 q 410 412 305 460 q 543 363 514 363 q 605 392 576 363 q 665 471 635 421 l 715 374 q 625 273 667 300 q 539 246 583 246 q 396 295 487 246 q 243 344 306 344 q 124 235 170 344 l 75 333 z "},"▒":{"ha":1383,"x_min":0,"x_max":1383,"o":"m 234 -116 l 460 -116 l 460 -342 l 234 -342 l 234 -116 m 698 -116 l 923 -116 l 923 -342 l 698 -342 l 698 -116 m 1161 -116 l 1383 -116 l 1383 -342 l 1161 -342 l 1161 -116 m 464 118 l 694 118 l 694 -112 l 464 -112 l 464 118 m 927 118 l 1157 118 l 1157 -112 l 927 -112 l 927 118 m 0 118 l 230 118 l 230 -112 l 0 -112 l 0 118 m 698 349 l 923 349 l 923 122 l 698 122 l 698 349 m 234 349 l 460 349 l 460 122 l 234 122 l 234 349 m 1161 349 l 1383 349 l 1383 122 l 1161 122 l 1161 349 m 0 578 l 230 578 l 230 349 l 0 349 l 0 578 m 927 578 l 1157 578 l 1157 349 l 927 349 l 927 578 m 464 578 l 694 578 l 694 349 l 464 349 l 464 578 m 698 806 l 923 806 l 923 583 l 698 583 l 698 806 m 1161 806 l 1383 806 l 1383 583 l 1161 583 l 1161 806 m 234 806 l 460 806 l 460 583 l 234 583 l 234 806 m 464 1040 l 694 1040 l 694 810 l 464 810 l 464 1040 m 927 1040 l 1157 1040 l 1157 810 l 927 810 l 927 1040 m 0 1040 l 230 1040 l 230 810 l 0 810 l 0 1040 z "},"€":{"ha":694,"x_min":-47,"x_max":790,"o":"m 743 682 l 707 687 q 671 840 707 777 q 564 904 635 904 q 325 601 417 904 l 597 601 l 567 532 l 307 532 q 285 423 293 477 l 522 423 l 491 354 l 275 354 q 272 301 272 324 q 311 113 272 169 q 431 58 351 58 q 637 189 542 58 l 673 165 q 534 23 600 61 q 390 -15 468 -15 q 177 84 257 -15 q 97 338 97 184 l 97 354 l -47 354 l -17 423 l 101 423 q 121 532 106 478 l 28 532 l 61 601 l 142 601 q 294 848 188 743 q 540 953 399 953 q 653 932 601 953 q 717 913 705 913 q 760 953 745 913 l 790 953 l 743 682 z "},"‚":{"ha":463,"x_min":-3,"x_max":280,"o":"m -3 -212 l -3 -212 q 161 -52 161 -126 q 112 6 161 -28 q 63 90 63 41 q 90 163 63 135 q 162 193 116 193 q 247 157 214 193 q 280 63 280 122 q 212 -104 280 -26 q 15 -243 145 -182 l -3 -212 z "},"ƒ":{"ha":694,"x_min":-122,"x_max":746,"o":"m 254 546 l 254 546 l 106 546 l 117 606 l 268 606 l 268 606 q 366 848 302 754 q 592 977 455 977 q 701 943 656 977 q 746 861 746 911 q 724 793 746 816 q 663 770 703 770 q 612 787 635 770 q 590 838 590 805 q 609 888 590 867 q 630 912 630 909 q 598 935 630 935 q 486 789 523 935 q 448 606 469 727 l 448 606 l 616 606 l 602 546 l 439 546 l 439 546 l 399 341 q 252 -91 343 35 q 24 -217 161 -217 q -80 -185 -38 -217 q -122 -94 -122 -153 l -122 -94 q -99 -35 -122 -58 q -42 -11 -76 -11 q 12 -31 -6 -11 q 31 -82 31 -50 q 11 -127 31 -103 q -9 -154 -9 -149 q 24 -175 -9 -175 q 107 -120 77 -175 q 160 51 137 -65 l 254 546 z "},"„":{"ha":694,"x_min":-77,"x_max":564,"o":"m -77 -212 l -77 -212 q 87 -52 87 -126 q 37 6 87 -28 q -12 90 -12 41 q 16 163 -12 135 q 87 193 43 193 q 171 160 137 193 q 205 63 205 127 q 135 -106 205 -29 q -60 -243 65 -184 l -77 -212 m 281 -212 l 281 -212 q 445 -52 445 -126 q 395 6 445 -28 q 347 90 347 41 q 374 163 347 135 q 446 193 401 193 q 530 159 496 193 q 564 63 564 125 q 502 -97 564 -20 q 298 -243 440 -174 l 281 -212 z "},"…":{"ha":1389,"x_min":54,"x_max":1171,"o":"m 54 88 q 83 159 54 130 q 159 189 113 189 q 233 159 205 189 q 260 88 260 130 q 231 14 260 45 q 155 -16 202 -16 q 82 14 111 -16 q 54 88 54 45 m 510 88 q 541 161 510 132 q 614 189 571 189 q 688 159 661 189 q 715 88 715 130 q 686 14 715 45 q 611 -16 656 -16 q 538 14 566 -16 q 510 88 510 45 m 966 88 q 995 159 966 130 q 1070 189 1024 189 q 1144 159 1117 189 q 1171 88 1171 130 q 1142 14 1171 45 q 1067 -16 1114 -16 q 994 14 1022 -16 q 966 88 966 45 z "},"†":{"ha":694,"x_min":125,"x_max":682,"o":"m 258 391 q 342 508 305 433 q 380 623 378 583 q 277 595 324 623 q 195 568 231 568 q 146 587 166 568 q 125 633 125 606 q 196 709 125 709 q 276 682 225 709 q 386 654 327 654 q 395 732 395 692 q 382 802 395 753 q 370 878 370 852 q 388 934 370 909 q 449 958 406 958 q 504 935 481 958 q 527 881 527 913 q 497 806 527 844 q 421 654 436 724 q 526 681 471 654 q 606 709 582 709 q 663 690 644 709 q 682 638 682 673 q 661 589 682 609 q 600 568 640 568 q 576 572 591 568 q 529 595 562 577 q 414 623 479 623 q 405 549 405 576 q 440 379 405 472 q 310 62 369 290 l 241 -200 l 210 -200 l 248 35 q 267 292 267 155 q 258 391 267 366 z "},"‡":{"ha":694,"x_min":18,"x_max":680,"o":"m 380 631 l 380 631 q 274 604 328 631 q 195 579 222 579 q 127 652 127 579 q 142 699 127 678 q 198 720 158 720 q 273 692 224 720 q 387 665 322 665 l 387 665 q 397 741 397 703 q 387 812 397 771 q 377 876 377 856 q 395 935 377 912 q 456 958 414 958 l 456 958 q 507 939 486 958 q 528 886 528 920 q 488 799 528 854 q 422 665 440 732 l 422 665 q 530 692 466 665 q 613 720 595 720 q 661 699 641 720 q 680 652 680 680 q 659 600 680 622 q 609 579 638 579 q 523 606 585 579 q 417 633 463 633 l 417 633 q 406 523 406 590 q 441 382 406 437 l 441 382 l 441 382 q 318 132 361 307 l 318 132 q 425 159 372 132 q 503 185 479 185 q 551 166 531 185 q 572 113 572 147 q 551 62 572 79 q 498 45 531 45 q 424 71 475 45 q 311 98 374 98 l 311 98 q 302 22 302 61 q 311 -52 302 -9 q 321 -111 321 -94 q 242 -194 321 -194 l 242 -194 q 191 -174 212 -194 q 170 -127 170 -155 q 210 -37 170 -93 q 276 98 260 31 l 276 98 q 168 71 224 98 q 89 45 112 45 q 37 66 56 45 q 18 110 18 87 q 37 166 18 148 q 90 185 57 185 q 174 157 123 185 q 281 130 225 130 l 281 130 q 292 243 292 173 q 257 382 292 326 l 257 382 l 257 382 q 380 631 338 459 z "},"ˆ":{"ha":463,"x_min":54,"x_max":514,"o":"m 54 716 l 282 955 l 395 955 l 514 716 l 444 716 l 321 847 l 321 847 l 133 716 l 54 716 m 288 716 l 288 716 l 288 716 z "},"‰":{"ha":1389,"x_min":11,"x_max":1385,"o":"m 424 831 l 424 831 q 429 771 429 797 q 361 544 429 642 q 182 447 294 447 q 65 497 119 447 q 11 635 11 548 q 96 852 11 766 q 280 938 181 938 q 381 899 333 938 q 500 856 434 856 q 728 987 629 856 l 795 987 l 189 -39 l 122 -39 l 653 867 l 653 867 q 503 813 594 813 q 424 831 463 813 m 294 892 q 197 785 248 892 q 147 588 147 679 q 219 487 147 487 q 339 577 285 487 q 393 779 393 667 q 389 821 393 795 q 368 852 386 846 q 322 877 337 863 q 294 892 307 892 m 463 175 q 542 374 463 281 q 730 467 621 467 q 881 292 881 467 q 819 87 881 198 q 642 -24 758 -24 q 514 25 566 -24 q 463 175 463 75 m 599 114 q 667 16 599 16 q 793 115 743 16 q 845 300 845 214 q 824 386 845 352 q 764 420 803 420 q 652 311 705 420 q 599 114 599 201 m 967 175 q 1042 373 967 279 q 1235 467 1118 467 q 1385 292 1385 467 q 1322 81 1385 186 q 1147 -24 1259 -24 q 1021 25 1074 -24 q 967 175 967 75 m 1103 114 q 1172 16 1103 16 q 1295 111 1242 16 q 1350 300 1350 205 q 1329 386 1350 352 q 1269 420 1308 420 q 1154 311 1205 420 q 1103 114 1103 201 z "},"Š":{"ha":772,"x_min":-1,"x_max":726,"o":"m 50 290 l 89 288 q 142 103 89 182 q 305 24 197 24 q 434 77 387 24 q 481 203 481 129 q 391 355 481 275 q 184 553 228 499 q 140 680 140 607 q 218 879 140 800 q 423 958 296 958 q 536 936 473 958 q 623 914 600 914 q 685 952 668 914 l 726 952 l 672 675 l 634 681 q 454 909 609 909 q 345 865 382 909 q 309 755 309 821 q 334 681 309 714 q 469 559 358 648 q 650 274 650 416 q 570 54 650 134 q 326 -24 489 -24 q 188 -3 264 -24 q 98 19 112 19 q 66 9 79 19 q 41 -24 53 0 l -1 -24 l 50 290 m 439 1012 l 439 1012 l 439 1012 m 275 0 l 275 0 l 275 0 m 605 960 l 377 722 l 264 722 l 145 960 l 216 960 l 338 827 l 338 827 l 526 960 l 605 960 m 323 722 l 323 722 l 323 722 z "},"‹":{"ha":463,"x_min":42,"x_max":422,"o":"m 216 309 l 272 186 q 313 67 313 96 l 313 67 q 295 45 313 45 q 259 75 285 45 q 42 305 201 140 l 42 318 q 361 550 311 508 q 401 576 391 576 q 422 557 422 576 l 422 557 q 351 451 422 525 l 216 309 z "},"Œ":{"ha":1311,"x_min":34,"x_max":1319,"o":"m 1139 0 l 710 0 q 540 -5 647 0 q 367 -9 433 -9 q 123 75 213 -9 q 34 318 34 160 q 200 741 34 540 q 638 943 366 943 q 757 938 686 943 q 852 933 829 933 l 1319 933 l 1257 673 l 1221 681 l 1221 724 q 1162 849 1221 810 q 996 888 1103 888 q 941 872 955 888 q 920 825 928 856 l 833 511 l 879 511 q 1006 538 955 511 q 1098 652 1058 566 l 1132 648 l 1034 271 l 1000 278 q 1006 353 1006 310 q 963 439 1006 419 q 820 467 921 459 l 730 140 q 737 66 716 87 q 825 45 759 45 l 845 45 q 1187 271 1064 45 l 1223 264 l 1139 0 m 697 714 q 704 847 720 800 q 617 895 688 895 q 345 658 451 895 q 238 229 238 421 q 279 93 238 148 q 401 38 319 38 q 494 72 459 38 q 548 176 528 106 l 697 714 z "},"Ž":{"ha":848,"x_min":-16,"x_max":819,"o":"m 587 886 l 587 886 l 477 886 q 277 836 356 886 q 127 684 199 785 l 89 689 l 169 933 l 819 933 l 819 893 l 216 47 l 216 47 l 327 47 q 570 102 483 47 q 730 271 658 157 l 768 264 l 686 0 l -16 0 l -16 40 l 587 886 m 483 1012 l 483 1012 l 483 1012 m 0 958 l 0 958 l 0 958 m 583 960 l 355 722 l 243 722 l 123 960 l 194 960 l 316 827 l 316 827 l 505 960 l 583 960 m 301 722 l 301 722 l 301 722 z "},"‘":{"ha":463,"x_min":174,"x_max":457,"o":"m 457 926 l 457 926 q 293 766 293 840 q 342 708 293 742 q 391 624 391 673 q 365 551 391 579 q 292 522 338 522 q 208 557 240 522 q 174 651 174 592 q 242 819 174 740 q 439 958 309 897 l 457 926 z "},"’":{"ha":463,"x_min":140,"x_max":423,"o":"m 140 553 l 140 553 q 304 713 304 639 q 255 771 304 737 q 206 855 206 806 q 233 928 206 900 q 305 958 259 958 q 390 922 357 958 q 423 828 423 887 q 355 661 423 739 q 158 522 288 583 l 140 553 z "},"“":{"ha":694,"x_min":70,"x_max":711,"o":"m 711 926 l 711 926 q 547 766 547 840 q 596 708 547 742 q 645 624 645 673 q 618 551 645 579 q 546 522 591 522 q 463 554 496 522 q 428 651 428 587 q 498 821 428 743 q 693 958 568 898 l 711 926 m 353 926 l 353 926 q 189 766 189 840 q 238 708 189 742 q 287 624 287 673 q 260 551 287 579 q 188 522 233 522 q 104 555 137 522 q 70 651 70 589 q 132 811 70 734 q 335 958 193 888 l 353 926 z "},"”":{"ha":694,"x_min":75,"x_max":716,"o":"m 75 553 l 75 553 q 239 713 239 639 q 190 771 239 737 q 141 855 141 806 q 168 928 141 900 q 240 958 195 958 q 323 925 290 958 q 358 828 358 892 q 288 659 358 736 q 93 522 218 581 l 75 553 m 433 553 l 433 553 q 597 713 597 639 q 548 771 597 737 q 499 855 499 806 q 526 928 499 900 q 598 958 553 958 q 682 924 649 958 q 716 828 716 890 q 654 668 716 745 q 451 522 593 591 l 433 553 z "},"•":{"ha":486,"x_min":0,"x_max":488,"o":"m 0 487 q 72 658 0 587 q 246 729 144 729 q 417 656 346 729 q 488 483 488 585 q 416 311 488 382 q 242 241 344 241 q 70 313 140 241 q 0 487 0 385 z "},"–":{"ha":694,"x_min":-54,"x_max":662,"o":"m -54 245 l -32 370 l 662 370 l 640 245 l -54 245 z "},"—":{"ha":1389,"x_min":-54,"x_max":1356,"o":"m -54 245 l -32 370 l 1356 370 l 1334 245 l -54 245 z "},"˜":{"ha":463,"x_min":65,"x_max":566,"o":"m 65 745 q 232 911 101 911 q 345 880 270 911 q 437 849 420 849 q 475 861 460 849 q 510 911 491 872 l 566 911 q 405 745 523 745 q 292 775 366 745 q 192 806 218 806 q 121 745 146 806 l 65 745 m 286 716 l 286 716 l 286 716 z "},"™":{"ha":1389,"x_min":50,"x_max":1346,"o":"m 1346 933 l 1346 903 q 1288 883 1302 903 q 1274 827 1274 864 l 1274 465 l 1274 451 q 1314 404 1274 411 l 1346 399 l 1346 369 l 1092 369 l 1092 399 l 1131 404 q 1164 446 1164 408 l 1164 465 l 1164 794 l 1164 794 l 948 369 l 932 369 l 732 792 l 732 486 q 751 416 732 434 q 804 399 772 399 l 804 369 l 621 369 l 621 399 q 661 409 629 399 q 694 486 694 419 l 694 827 q 621 903 671 899 l 621 933 l 774 933 l 977 512 l 977 512 l 1199 933 l 1346 933 m 537 933 l 537 814 l 509 814 q 414 903 488 903 l 348 903 l 348 465 l 348 451 q 356 415 348 425 q 385 403 364 406 l 416 399 l 416 369 l 170 369 l 170 399 q 229 415 220 404 q 239 465 239 427 l 239 903 l 171 903 q 78 814 98 903 l 50 814 l 50 933 l 537 933 z "},"š":{"ha":541,"x_min":3,"x_max":640,"o":"m 35 208 l 72 204 q 117 70 80 118 q 205 22 153 22 q 264 45 244 22 q 286 94 286 68 q 275 146 286 124 q 235 204 264 170 q 106 382 123 338 q 90 466 90 428 q 140 589 90 541 q 281 638 191 638 q 355 623 317 638 q 415 608 394 608 q 454 636 436 608 l 494 636 l 462 421 l 425 424 q 300 593 397 593 q 240 571 258 593 q 222 517 222 549 q 236 473 222 497 q 272 422 250 449 q 392 260 366 303 q 418 165 418 218 q 359 31 418 82 q 212 -20 300 -20 q 134 -6 176 -20 q 79 8 92 8 q 41 -20 49 8 l 3 -20 l 35 208 m 357 714 l 357 714 l 357 714 m 197 0 l 197 0 l 197 0 m 606 960 l 378 722 l 266 722 l 146 960 l 217 960 l 339 827 l 339 827 l 528 960 l 606 960 m 324 722 l 324 722 l 324 722 z "},"›":{"ha":463,"x_min":13,"x_max":393,"o":"m 219 313 l 163 435 q 121 554 121 526 l 121 554 q 140 576 121 576 q 176 547 150 576 q 393 316 233 481 l 393 303 q 74 71 123 113 q 34 45 44 45 q 13 64 13 45 l 13 64 q 83 170 13 96 l 219 313 z "},"œ":{"ha":1003,"x_min":8,"x_max":928,"o":"m 433 56 q 224 -20 357 -20 q 75 36 141 -20 q 8 217 8 92 q 129 496 8 353 q 410 638 250 638 q 572 551 514 638 q 669 616 623 593 q 769 638 715 638 q 928 509 928 638 q 830 354 928 422 q 570 254 733 286 q 559 175 559 203 q 651 69 559 69 q 728 92 692 69 q 812 186 765 114 l 852 166 q 590 -20 758 -20 q 433 56 500 -20 m 172 139 q 248 22 172 22 q 399 203 334 22 q 464 495 464 384 q 385 596 464 596 q 238 416 304 596 q 172 139 172 235 m 580 300 q 742 391 680 322 q 804 538 804 460 q 755 596 804 596 q 667 518 710 596 q 580 300 624 441 z "},"ž":{"ha":541,"x_min":-61,"x_max":580,"o":"m -61 -2 l 350 485 l 350 485 l 148 485 q 56 401 88 485 l 16 406 l 77 618 l 514 618 l 514 604 l 121 144 l 121 144 q 185 109 151 136 q 250 29 220 82 l 283 -30 q 335 -71 305 -71 q 358 -66 351 -71 q 366 -48 366 -62 q 352 -23 366 -41 q 339 18 339 -5 q 359 60 339 39 q 408 83 378 83 q 461 62 440 83 q 482 6 482 43 q 441 -75 482 -38 q 337 -113 401 -113 q 170 -53 254 -113 q 49 7 87 7 q 12 -5 28 7 q -26 -33 -5 -18 l -61 -2 m 298 714 l 298 714 l 298 714 m 0 638 l 0 638 l 0 638 m 600 960 l 372 722 l 260 722 l 140 960 l 211 960 l 333 827 l 333 827 l 522 960 l 600 960 m 318 722 l 318 722 l 318 722 z "},"Ÿ":{"ha":848,"x_min":0,"x_max":916,"o":"m 102 0 l 102 35 q 201 59 175 41 q 245 144 227 78 l 326 437 l 205 806 q 180 864 195 838 q 102 899 166 891 l 102 933 l 102 933 l 494 933 l 494 899 q 433 890 471 899 q 395 850 395 882 q 410 780 395 822 l 504 492 l 504 492 l 682 747 q 713 798 705 781 q 722 844 722 816 q 701 883 722 868 q 626 899 682 899 l 626 933 l 916 933 l 916 899 q 791 802 849 886 l 527 430 l 456 168 q 444 98 444 121 q 471 46 444 58 q 549 35 499 35 l 549 0 l 549 0 l 102 0 m 554 1012 l 554 1012 l 554 1012 m 0 958 l 0 958 l 0 958 m 109 836 q 134 903 109 876 q 199 929 161 929 q 262 902 236 929 q 289 836 289 875 q 262 773 289 798 q 197 749 236 749 q 134 774 161 749 q 109 836 109 800 m 397 836 q 423 903 397 876 q 488 929 450 929 q 551 902 525 929 q 578 836 578 875 q 551 773 578 798 q 486 749 525 749 q 424 773 451 749 q 397 836 397 798 m 343 738 l 343 738 l 343 738 z "}," ":{"ha":347,"x_min":0,"x_max":0,"o":""},"¡":{"ha":541,"x_min":26,"x_max":447,"o":"m 447 583 q 418 511 447 541 q 346 481 388 481 q 273 511 303 481 q 241 583 241 541 q 269 651 241 621 q 348 680 296 680 q 418 652 389 680 q 447 583 447 623 m 267 378 l 309 368 q 232 -155 241 21 q 118 -292 227 -292 q 55 -267 83 -292 q 26 -193 26 -242 q 50 -105 26 -148 q 267 378 177 140 z "},"¢":{"ha":694,"x_min":58,"x_max":616,"o":"m 264 -19 l 264 -19 q 120 36 182 -19 q 58 199 58 92 q 182 502 58 357 q 446 647 307 647 q 494 644 473 647 l 494 644 l 551 810 l 551 810 l 602 810 l 538 630 l 538 630 q 616 519 616 594 q 589 456 616 482 q 524 430 562 430 q 474 443 492 430 l 474 443 l 345 71 l 345 71 l 345 71 q 511 191 429 73 l 549 166 q 431 34 488 75 q 314 -15 374 -6 l 314 -15 l 314 -15 l 248 -199 l 248 -199 l 200 -199 l 264 -19 m 298 79 l 298 79 l 472 583 l 472 583 q 439 601 472 601 q 304 463 372 601 q 236 211 236 326 q 298 79 236 106 z "},"£":{"ha":694,"x_min":-45,"x_max":707,"o":"m 175 208 l 175 208 l 175 208 l 175 208 q 203 433 183 284 l 50 433 l 63 516 l 211 516 l 211 516 q 389 891 254 780 q 550 953 467 953 q 659 922 612 953 q 707 827 707 890 q 684 764 707 793 q 623 736 661 736 q 570 756 592 736 q 548 806 548 777 q 551 846 548 823 q 557 875 557 869 q 528 905 557 905 q 444 795 464 905 l 391 516 l 391 516 l 544 516 l 530 433 l 376 433 q 272 175 352 300 l 272 175 l 272 175 q 435 130 380 130 q 520 150 495 130 q 565 213 545 170 l 601 213 q 386 -15 557 -15 q 218 68 309 -15 l 218 68 q 76 -14 166 -14 q -10 20 25 -14 q -45 104 -45 54 q -10 186 -45 150 q 85 223 25 223 q 175 208 127 223 m 157 125 l 157 125 q 66 165 112 165 q 14 147 33 165 q -3 94 -3 130 q 18 49 -3 70 q 73 28 39 28 q 157 125 139 28 z "},"¤":{"ha":694,"x_min":-41,"x_max":727,"o":"m -41 741 l 39 819 l 174 684 l 174 684 q 343 734 245 734 l 343 734 q 512 684 439 734 l 512 684 l 647 819 l 727 741 l 591 604 l 591 604 q 643 435 643 528 l 643 435 q 589 264 643 330 l 589 264 l 727 127 l 647 47 l 515 183 l 515 183 q 343 132 437 132 l 343 132 q 172 183 248 132 l 172 183 l 39 47 l -41 127 l 96 264 l 96 264 q 43 435 43 335 l 43 435 q 96 604 43 533 l 96 604 l -41 741 m 165 433 q 216 302 165 358 q 340 246 268 246 q 467 298 414 246 q 521 436 521 350 q 470 566 521 512 q 345 620 420 620 q 218 565 271 620 q 165 433 165 510 z "},"¥":{"ha":694,"x_min":24,"x_max":846,"o":"m 43 899 l 43 933 l 43 933 l 43 933 l 433 933 l 433 899 q 345 885 359 899 q 330 850 330 871 q 379 686 330 831 q 451 481 427 538 l 451 481 l 627 747 q 666 845 666 805 q 568 899 666 899 l 568 933 l 846 933 l 846 899 q 721 802 778 886 l 494 475 l 494 475 l 684 475 l 664 406 l 456 406 l 456 408 l 456 408 l 427 297 l 427 297 l 639 297 l 619 228 l 406 228 l 406 228 l 385 147 q 380 94 380 126 q 411 44 380 55 q 491 35 422 40 l 491 0 l 491 0 l 491 0 l 43 0 l 43 0 l 43 35 q 151 62 121 35 q 196 144 180 90 l 222 228 l 222 228 l 24 228 l 43 297 l 241 297 l 241 297 l 271 405 l 271 405 l 271 406 l 74 406 l 94 475 l 269 475 l 269 475 l 162 795 q 117 877 141 860 q 43 899 94 894 z "},"¦":{"ha":306,"x_min":87,"x_max":209,"o":"m 209 -24 l 87 -24 l 87 334 l 209 334 l 209 -24 m 87 953 l 209 953 l 209 595 l 87 595 l 87 953 z "},"§":{"ha":694,"x_min":48,"x_max":635,"o":"m 394 172 q 477 -11 477 60 q 412 -145 477 -90 q 248 -200 346 -200 q 104 -157 160 -200 q 48 -53 48 -113 q 71 6 48 -16 q 127 28 94 28 q 184 9 162 28 q 205 -42 205 -9 q 180 -98 205 -75 q 154 -130 154 -120 q 183 -157 154 -146 q 247 -168 212 -168 q 334 -141 296 -168 q 372 -63 372 -113 q 344 18 372 -22 q 266 123 317 60 l 178 227 q 112 330 131 289 q 93 414 93 372 q 136 549 93 499 q 238 600 180 600 q 312 591 291 600 q 231 770 231 682 q 287 903 231 848 q 439 958 343 958 q 582 920 529 958 q 635 824 635 882 q 608 762 635 784 q 553 741 583 741 q 499 761 522 741 q 477 810 477 781 q 503 860 477 839 q 529 889 529 880 q 507 913 529 901 q 444 926 486 926 q 357 895 387 926 q 328 823 328 863 q 398 681 328 768 q 572 456 541 507 q 603 345 603 405 q 553 219 603 269 q 441 169 503 169 q 394 172 413 169 m 193 479 q 278 309 193 418 q 420 201 363 201 q 479 226 455 201 q 503 288 503 252 q 419 459 503 350 q 274 568 336 568 q 214 542 237 568 q 193 479 193 515 z "},"¨":{"ha":463,"x_min":76,"x_max":545,"o":"m 76 814 q 102 881 76 854 q 166 907 128 907 q 230 880 203 907 q 256 814 256 853 q 230 751 256 777 q 165 727 203 727 q 102 752 128 727 q 76 814 76 778 m 365 814 q 391 881 365 854 q 455 907 417 907 q 519 880 492 907 q 545 814 545 853 q 519 751 545 777 q 454 727 492 727 q 391 751 418 727 q 365 814 365 777 m 311 716 l 311 716 l 311 716 z "},"©":{"ha":1038,"x_min":43,"x_max":996,"o":"m 996 464 q 861 121 996 263 q 519 -20 726 -20 q 182 122 320 -20 q 43 468 43 264 q 182 814 43 673 q 519 955 320 955 q 854 817 714 955 q 996 464 996 678 m 911 468 q 795 766 911 642 q 519 892 678 892 q 243 764 360 892 q 127 465 127 637 q 242 169 127 295 q 519 43 357 43 q 795 168 680 43 q 911 468 911 294 m 758 347 l 734 247 q 672 213 734 232 q 550 195 611 195 q 330 264 414 195 q 247 474 247 334 q 330 669 247 591 q 555 749 413 749 q 675 732 616 749 q 734 693 734 716 l 734 597 l 711 597 q 557 720 690 720 q 416 659 468 720 q 366 481 366 597 q 562 227 366 227 q 732 347 682 227 l 758 347 z "},"ª":{"ha":370,"x_min":22,"x_max":459,"o":"m 336 895 l 353 941 l 459 946 l 388 732 q 365 632 365 660 q 372 619 365 619 q 434 679 385 619 l 454 667 q 315 559 380 559 q 271 575 290 559 q 253 615 253 591 q 262 668 253 638 q 186 579 218 599 q 115 559 155 559 q 47 591 73 559 q 22 664 22 623 q 102 857 22 761 q 270 953 182 953 q 336 895 317 953 m 134 663 q 164 622 134 622 q 254 710 205 622 q 304 876 304 798 q 277 916 304 916 q 180 811 227 916 q 134 663 134 707 z "},"«":{"ha":694,"x_min":10,"x_max":650,"o":"m 444 309 l 500 186 q 542 67 542 96 l 542 67 q 524 45 542 45 q 488 75 513 45 q 271 305 430 140 l 271 318 q 589 550 540 508 q 629 576 619 576 q 650 557 650 576 l 650 557 q 579 453 650 528 l 444 309 m 184 309 l 240 186 q 281 67 281 96 l 281 67 q 263 45 281 45 q 227 75 253 45 q 10 305 170 140 l 10 318 q 329 550 279 508 q 369 576 359 576 q 390 557 390 576 l 390 557 q 340 473 390 525 l 184 309 z "},"¬":{"ha":842,"x_min":76,"x_max":781,"o":"m 76 566 l 781 566 l 781 151 l 659 151 l 659 444 l 76 444 l 76 566 z "},"­":{"ha":463,"x_min":3,"x_max":372,"o":"m 3 229 l 35 389 l 372 389 l 340 229 l 3 229 z "},"®":{"ha":1038,"x_min":43,"x_max":996,"o":"m 43 468 q 180 812 43 669 q 519 955 318 955 q 858 812 720 955 q 996 464 996 669 q 861 121 996 263 q 519 -20 726 -20 q 182 122 320 -20 q 43 468 43 264 m 127 465 q 242 170 127 296 q 519 43 357 43 q 796 168 682 43 q 911 468 911 294 q 795 768 911 645 q 519 892 678 892 q 243 766 360 892 q 127 465 127 641 m 290 233 l 323 237 q 355 284 355 241 l 355 298 l 355 643 l 355 659 q 325 707 355 703 l 290 711 l 290 734 l 531 734 q 664 699 621 734 q 707 605 707 663 q 677 512 707 552 q 595 458 647 473 l 595 458 l 694 326 q 783 225 745 254 l 783 210 l 686 210 q 617 279 659 210 q 517 443 567 360 l 454 443 l 454 298 l 454 282 q 484 239 454 244 l 519 233 l 519 210 l 290 210 l 290 233 m 454 471 l 511 471 q 608 599 608 471 q 509 706 608 706 l 454 706 l 454 471 z "},"¯":{"ha":694,"x_min":120,"x_max":814,"o":"m 120 1116 l 814 1116 l 814 1046 l 120 1046 l 120 1116 z "},"°":{"ha":555,"x_min":119,"x_max":522,"o":"m 119 751 q 178 895 119 838 q 322 953 237 953 q 463 896 405 953 q 522 755 522 839 q 464 610 522 669 q 319 551 406 551 q 175 610 231 551 q 119 751 119 668 m 175 751 q 217 649 175 693 q 319 606 260 606 q 425 649 382 606 q 467 753 467 693 q 424 855 467 812 q 322 899 382 899 q 218 855 260 899 q 175 751 175 812 z "},"±":{"ha":791,"x_min":43,"x_max":751,"o":"m 43 122 l 751 122 l 751 0 l 43 0 l 43 122 m 43 505 l 336 505 l 336 711 l 458 711 l 458 505 l 751 505 l 751 382 l 458 382 l 458 176 l 336 176 l 336 382 l 43 382 l 43 505 z "},"²":{"ha":416,"x_min":2,"x_max":436,"o":"m 132 476 l 132 475 l 264 475 q 336 489 313 475 q 385 543 360 503 l 406 543 l 335 380 l 2 380 l 2 402 l 188 580 q 310 773 310 697 q 287 846 310 823 q 226 868 264 868 q 166 850 193 868 q 111 800 140 833 l 85 815 q 286 952 153 952 q 395 910 355 952 q 436 814 436 869 q 305 616 436 720 l 132 476 l 132 476 z "},"³":{"ha":416,"x_min":24,"x_max":447,"o":"m 156 690 q 321 810 321 719 q 300 863 321 846 q 252 882 279 882 q 144 822 195 882 l 124 840 q 313 952 198 952 q 408 920 370 952 q 447 836 447 888 q 336 712 447 760 l 336 712 q 410 584 410 667 q 330 432 410 497 q 151 368 252 368 q 24 437 24 368 q 38 481 24 466 q 72 498 53 498 q 114 474 95 498 q 154 427 133 450 q 193 414 165 414 q 262 450 233 414 q 293 541 293 486 q 154 671 293 671 l 154 671 l 156 690 z "},"´":{"ha":463,"x_min":195,"x_max":532,"o":"m 263 716 l 195 716 l 379 909 q 419 949 399 932 q 467 966 439 966 q 512 946 492 966 q 532 899 532 926 q 467 830 532 866 l 263 716 m 320 716 l 320 716 l 320 716 z "},"µ":{"ha":800,"x_min":-82,"x_max":718,"o":"m 178 618 l 363 618 l 236 201 q 222 134 222 156 q 251 97 222 97 q 351 176 285 97 q 457 382 420 268 l 530 618 l 718 618 l 587 195 q 568 119 568 133 q 587 99 568 99 q 671 186 610 99 l 700 163 q 569 14 618 47 q 471 -20 519 -20 q 406 7 429 -20 q 382 73 382 35 q 393 163 382 111 q 220 0 297 0 q 130 33 173 0 q 98 -169 98 -60 q 65 -250 98 -216 q -10 -282 33 -282 q -82 -197 -82 -282 q -51 -81 -82 -155 q 21 109 -3 31 l 178 618 z "},"¶":{"ha":694,"x_min":-82,"x_max":795,"o":"m 461 -271 l 228 -271 l 552 899 l 475 899 l 151 -271 l -82 -271 l -73 -237 q 25 -218 3 -237 q 62 -146 47 -199 l 201 356 q 5 548 5 356 q 85 806 5 680 q 385 933 165 933 l 795 933 l 785 899 q 696 882 728 896 q 649 801 666 868 l 397 -95 q 372 -200 372 -184 q 408 -229 372 -220 q 471 -237 444 -237 l 461 -271 m 211 391 l 352 899 q 167 762 221 872 q 113 547 113 651 q 138 452 113 499 q 211 391 163 406 z "},"∙":{"ha":347,"x_min":73,"x_max":278,"o":"m 73 463 q 103 536 73 507 q 177 564 134 564 q 248 536 218 564 q 278 463 278 509 q 251 389 278 420 q 174 359 224 359 q 100 389 127 359 q 73 463 73 420 z "},"¸":{"ha":463,"x_min":-109,"x_max":217,"o":"m -109 -262 l -77 -219 q 16 -239 -27 -239 q 90 -180 90 -239 q 24 -132 90 -132 q -16 -138 5 -132 l -33 -121 l 58 11 l 120 11 l 58 -79 q 92 -76 77 -76 q 180 -102 142 -76 q 217 -173 217 -128 q 165 -263 217 -231 q 38 -295 114 -295 q -109 -262 -25 -295 m 130 0 l 130 0 l 130 0 z "},"¹":{"ha":416,"x_min":41,"x_max":421,"o":"m 41 380 l 41 406 q 148 470 128 406 l 246 783 q 264 856 264 840 q 227 884 264 884 q 170 880 223 884 l 172 906 q 421 952 289 924 l 421 952 l 281 498 q 271 442 271 460 q 286 414 271 421 q 353 406 301 406 l 353 380 l 41 380 z "},"º":{"ha":416,"x_min":76,"x_max":480,"o":"m 76 684 q 156 869 76 785 q 341 953 236 953 q 435 922 390 953 q 480 828 480 890 q 401 641 480 723 q 220 559 322 559 q 113 597 151 559 q 76 684 76 634 m 187 640 q 231 587 187 587 q 328 698 286 587 q 369 876 369 809 q 334 925 369 925 q 233 825 279 925 q 187 640 187 726 z "},"»":{"ha":694,"x_min":16,"x_max":656,"o":"m 222 313 l 166 435 q 125 554 125 526 l 125 554 q 143 576 125 576 q 179 547 153 576 q 396 316 237 481 l 396 303 q 77 71 127 113 q 37 45 47 45 q 16 64 16 45 l 16 64 q 87 168 16 94 l 222 313 m 483 313 l 427 435 q 385 554 385 526 l 385 554 q 404 576 385 576 q 439 547 414 576 q 656 316 497 481 l 656 303 q 338 71 387 113 q 298 45 308 45 q 277 64 277 45 l 277 64 q 327 148 277 96 l 483 313 z "},"¼":{"ha":1042,"x_min":9,"x_max":1007,"o":"m 9 380 l 9 406 q 116 470 96 406 l 214 783 q 233 856 233 840 q 195 884 233 884 q 138 880 191 884 l 140 906 q 389 952 257 924 l 389 952 l 250 498 q 239 442 239 460 q 254 414 239 421 q 321 406 269 406 l 321 380 l 9 380 m 185 -20 l 788 953 l 869 953 l 869 949 l 266 -20 l 185 -20 m 756 124 l 756 124 l 530 124 l 530 124 l 552 216 l 944 570 l 944 570 l 1007 570 l 1007 570 l 900 208 l 900 208 l 962 208 l 962 208 l 938 124 l 878 124 l 878 124 l 838 -2 l 838 -2 l 719 -2 l 719 -2 l 756 124 m 781 208 l 781 208 l 851 445 l 593 208 l 593 208 l 781 208 z "},"½":{"ha":1042,"x_min":-13,"x_max":1006,"o":"m -13 380 l -13 406 q 94 470 74 406 l 192 783 q 210 856 210 840 q 173 884 210 884 q 115 880 169 884 l 117 906 q 367 952 235 924 l 367 952 l 227 498 q 216 442 216 460 q 231 414 216 421 q 299 406 247 406 l 299 380 l -13 380 m 164 -20 l 767 953 l 848 953 l 848 949 l 245 -20 l 164 -20 m 702 96 l 702 95 l 834 95 q 906 109 883 95 q 954 162 930 123 l 976 162 l 905 -1 l 572 -1 l 572 22 l 758 199 q 880 393 880 317 q 857 465 880 443 q 795 488 834 488 q 736 470 762 488 q 680 420 709 452 l 654 435 q 856 572 722 572 q 965 530 924 572 q 1006 434 1006 488 q 875 235 1006 340 l 702 96 l 702 96 z "},"¾":{"ha":1042,"x_min":10,"x_max":1014,"o":"m 142 690 q 307 810 307 719 q 286 863 307 846 q 239 882 266 882 q 130 822 182 882 l 111 840 q 300 952 184 952 q 395 920 356 952 q 433 836 433 888 q 323 712 433 760 l 323 712 q 396 584 396 667 q 317 432 396 497 q 137 368 238 368 q 10 437 10 368 q 24 481 10 466 q 58 498 39 498 q 100 474 81 498 q 140 427 119 450 q 180 414 152 414 q 249 450 219 414 q 279 541 279 486 q 140 671 279 671 l 140 671 l 142 690 m 192 -20 l 795 953 l 876 953 l 876 949 l 273 -20 l 192 -20 m 763 124 l 763 124 l 536 124 l 536 124 l 559 216 l 951 570 l 951 570 l 1014 570 l 1014 570 l 907 208 l 907 208 l 968 208 l 968 208 l 945 124 l 885 124 l 885 124 l 844 -2 l 844 -2 l 726 -2 l 726 -2 l 763 124 m 787 208 l 787 208 l 858 445 l 600 208 l 600 208 l 787 208 z "},"¿":{"ha":694,"x_min":-13,"x_max":532,"o":"m 433 690 q 503 661 474 690 q 532 592 532 633 q 503 521 532 551 q 431 490 473 490 q 358 521 389 490 q 327 592 327 551 q 354 661 327 631 q 433 690 381 690 m 368 382 l 410 372 q 317 156 405 267 q 181 -36 199 10 q 163 -132 163 -83 q 262 -245 163 -245 q 320 -231 293 -245 q 347 -195 347 -216 q 326 -155 347 -184 q 305 -97 305 -126 q 330 -39 305 -63 q 390 -16 355 -16 q 451 -42 426 -16 q 475 -106 475 -68 q 411 -233 475 -180 q 237 -288 346 -288 q 52 -231 116 -288 q -13 -86 -13 -175 q 44 59 -13 0 q 217 190 100 117 q 322 283 300 245 q 368 382 345 320 z "},"À":{"ha":926,"x_min":-92,"x_max":822,"o":"m 537 953 l 537 953 l 572 953 l 704 160 q 732 63 716 85 q 822 35 749 41 l 822 0 l 401 0 l 401 35 q 479 51 448 35 q 509 115 509 67 q 507 160 509 140 l 488 292 l 488 292 l 193 292 l 193 292 l 112 149 q 90 85 90 111 q 179 35 90 35 l 179 0 l 179 0 l -92 0 l -92 35 q -33 64 -57 41 q 23 134 -7 87 l 537 953 m 224 347 l 224 347 l 479 347 l 479 347 l 429 685 l 429 685 l 224 347 m 551 1012 l 551 1012 l 551 1012 m 500 0 l 500 0 l 500 0 m 0 958 l 0 958 l 0 958 m 376 724 l 206 836 q 146 913 146 876 q 164 954 146 934 q 210 973 183 973 q 290 920 250 973 l 439 724 l 376 724 m 326 724 l 326 724 l 326 724 z "},"Á":{"ha":926,"x_min":-92,"x_max":822,"o":"m 537 953 l 537 953 l 572 953 l 704 160 q 732 63 716 85 q 822 35 749 41 l 822 0 l 401 0 l 401 35 q 479 51 448 35 q 509 115 509 67 q 507 160 509 140 l 488 292 l 488 292 l 193 292 l 193 292 l 112 149 q 90 85 90 111 q 179 35 90 35 l 179 0 l 179 0 l -92 0 l -92 35 q -33 64 -57 41 q 23 134 -7 87 l 537 953 m 224 347 l 224 347 l 479 347 l 479 347 l 429 685 l 429 685 l 224 347 m 551 1012 l 551 1012 l 551 1012 m 500 0 l 500 0 l 500 0 m 0 958 l 0 958 l 0 958 m 290 725 l 222 725 l 406 918 q 446 958 427 941 q 494 975 466 975 q 539 955 519 975 q 559 908 559 935 q 494 839 559 875 l 290 725 m 347 725 l 347 725 l 347 725 z "},"Â":{"ha":926,"x_min":-92,"x_max":822,"o":"m 537 953 l 537 953 l 572 953 l 704 160 q 732 63 716 85 q 822 35 749 41 l 822 0 l 401 0 l 401 35 q 479 51 448 35 q 509 115 509 67 q 507 160 509 140 l 488 292 l 488 292 l 193 292 l 193 292 l 112 149 q 90 85 90 111 q 179 35 90 35 l 179 0 l 179 0 l -92 0 l -92 35 q -33 64 -57 41 q 23 134 -7 87 l 537 953 m 224 347 l 224 347 l 479 347 l 479 347 l 429 685 l 429 685 l 224 347 m 551 1012 l 551 1012 l 551 1012 m 500 0 l 500 0 l 500 0 m 0 958 l 0 958 l 0 958 m 81 722 l 309 960 l 422 960 l 541 722 l 471 722 l 349 852 l 349 852 l 160 722 l 81 722 m 315 722 l 315 722 l 315 722 z "},"Ã":{"ha":926,"x_min":-92,"x_max":831,"o":"m 537 953 l 537 953 l 572 953 l 704 160 q 732 63 716 85 q 822 35 749 41 l 822 0 l 401 0 l 401 35 q 479 51 448 35 q 509 115 509 67 q 507 160 509 140 l 488 292 l 488 292 l 193 292 l 193 292 l 112 149 q 90 85 90 111 q 179 35 90 35 l 179 0 l 179 0 l -92 0 l -92 35 q -33 64 -57 41 q 23 134 -7 87 l 537 953 m 224 347 l 224 347 l 479 347 l 479 347 l 429 685 l 429 685 l 224 347 m 551 1012 l 551 1012 l 551 1012 m 500 0 l 500 0 l 500 0 m 0 958 l 0 958 l 0 958 m 92 758 q 259 924 128 924 q 372 893 297 924 q 465 863 448 863 q 503 874 487 863 q 537 924 518 886 l 593 924 q 432 758 550 758 q 319 789 393 758 q 219 820 245 820 q 149 758 173 820 l 92 758 m 313 730 l 313 730 l 313 730 z "},"Ä":{"ha":926,"x_min":-92,"x_max":822,"o":"m 537 953 l 537 953 l 572 953 l 704 160 q 732 63 716 85 q 822 35 749 41 l 822 0 l 401 0 l 401 35 q 479 51 448 35 q 509 115 509 67 q 507 160 509 140 l 488 292 l 488 292 l 193 292 l 193 292 l 112 149 q 90 85 90 111 q 179 35 90 35 l 179 0 l 179 0 l -92 0 l -92 35 q -33 64 -57 41 q 23 134 -7 87 l 537 953 m 224 347 l 224 347 l 479 347 l 479 347 l 429 685 l 429 685 l 224 347 m 551 1012 l 551 1012 l 551 1012 m 500 0 l 500 0 l 500 0 m 0 958 l 0 958 l 0 958 m 103 836 q 129 903 103 876 q 193 929 155 929 q 257 902 231 929 q 283 836 283 875 q 257 773 283 798 q 192 749 231 749 q 129 774 155 749 q 103 836 103 800 m 392 836 q 418 903 392 876 q 482 929 444 929 q 546 902 519 929 q 572 836 572 875 q 546 773 572 798 q 481 749 519 749 q 418 773 446 749 q 392 836 392 798 m 338 738 l 338 738 l 338 738 z "},"Å":{"ha":926,"x_min":-92,"x_max":822,"o":"m 537 953 l 537 953 l 572 953 l 704 160 q 732 63 716 85 q 822 35 749 41 l 822 0 l 401 0 l 401 35 q 479 51 448 35 q 509 115 509 67 q 507 160 509 140 l 488 292 l 488 292 l 193 292 l 193 292 l 112 149 q 90 85 90 111 q 179 35 90 35 l 179 0 l 179 0 l -92 0 l -92 35 q -33 64 -57 41 q 23 134 -7 87 l 537 953 m 224 347 l 224 347 l 479 347 l 479 347 l 429 685 l 429 685 l 224 347 m 551 1012 l 551 1012 l 551 1012 m 500 0 l 500 0 l 500 0 m 0 958 l 0 958 l 0 958 m 201 1156 q 243 1261 201 1217 q 347 1305 286 1305 q 452 1261 408 1305 q 496 1156 496 1217 q 452 1052 496 1095 q 347 1009 408 1009 q 243 1052 286 1009 q 201 1156 201 1095 m 269 1156 q 292 1100 269 1123 q 348 1077 315 1077 q 404 1101 380 1077 q 429 1158 429 1124 q 404 1213 429 1190 q 348 1237 380 1237 q 292 1213 315 1237 q 269 1156 269 1189 m 347 1031 l 347 1031 l 347 1031 z "},"Æ":{"ha":1311,"x_min":-90,"x_max":1276,"o":"m -90 35 q -26 70 -48 45 q 56 172 -3 95 l 524 772 q 572 860 572 835 q 549 888 572 878 q 460 899 526 899 l 460 933 l 460 933 l 1276 933 l 1212 673 l 1180 680 l 1180 680 q 1123 844 1180 799 q 956 888 1067 888 q 899 882 921 888 q 867 833 878 876 l 778 517 q 966 553 920 517 q 1046 669 1013 589 l 1084 663 l 982 277 l 947 283 q 954 350 954 347 q 907 448 954 425 q 768 472 860 472 l 768 472 l 684 153 q 673 93 673 111 q 744 45 673 45 q 985 98 901 45 q 1142 271 1069 151 l 1180 267 l 1093 0 l 366 0 l 366 0 l 366 35 q 446 68 429 42 q 478 143 464 94 l 538 355 l 273 355 l 273 355 l 124 149 q 95 83 95 108 q 182 35 95 40 l 182 0 l 182 0 l -90 0 l -90 35 m 315 410 l 315 410 l 551 410 l 678 875 l 678 875 l 661 875 l 315 410 z "},"Ç":{"ha":926,"x_min":45,"x_max":942,"o":"m 760 214 l 801 184 q 422 -24 663 -24 q 152 73 260 -24 q 45 340 45 172 q 210 770 45 583 q 610 958 376 958 q 760 936 694 958 q 846 914 827 914 q 875 924 864 914 q 901 958 886 933 l 942 958 l 872 632 l 827 640 l 827 696 q 779 854 827 800 q 645 909 731 909 q 375 705 492 909 q 258 298 258 503 q 314 112 258 176 q 464 49 370 49 q 760 214 627 49 m 679 1012 l 679 1012 l 679 1012 m 367 0 l 367 0 l 367 0 m -82 -245 l -51 -202 q 43 -222 -1 -222 q 117 -163 117 -222 q 50 -115 117 -115 q 11 -121 32 -115 l -6 -104 l 84 28 l 146 28 l 84 -62 q 119 -59 103 -59 q 206 -85 169 -59 q 243 -156 243 -111 q 192 -246 243 -214 q 64 -278 140 -278 q -82 -245 1 -278 m 157 17 l 157 17 l 157 17 z "},"È":{"ha":926,"x_min":-38,"x_max":901,"o":"m -38 0 l -38 0 l -38 35 q 45 71 27 41 q 74 139 62 100 l 241 762 q 255 842 255 814 q 228 887 255 878 q 157 899 201 897 l 157 933 l 901 933 l 840 673 l 805 680 l 805 680 q 740 850 805 813 q 543 888 675 888 q 484 873 500 888 q 461 829 469 859 l 380 517 l 438 517 q 577 547 548 521 q 632 621 606 574 l 656 669 l 694 663 l 592 277 l 554 283 q 557 345 557 317 q 517 454 557 437 q 395 472 477 472 l 370 472 l 285 174 q 266 93 266 106 q 357 45 266 45 q 773 271 646 45 l 808 264 l 722 0 l -38 0 m 552 1012 l 552 1012 l 552 1012 m 568 0 l 568 0 l 568 0 m 0 958 l 0 958 l 0 958 m 385 724 l 215 836 q 155 913 155 876 q 173 954 155 934 q 218 973 192 973 q 298 920 258 973 l 448 724 l 385 724 m 334 724 l 334 724 l 334 724 z "},"É":{"ha":926,"x_min":-38,"x_max":901,"o":"m -38 0 l -38 0 l -38 35 q 45 71 27 41 q 74 139 62 100 l 241 762 q 255 842 255 814 q 228 887 255 878 q 157 899 201 897 l 157 933 l 901 933 l 840 673 l 805 680 l 805 680 q 740 850 805 813 q 543 888 675 888 q 484 873 500 888 q 461 829 469 859 l 380 517 l 438 517 q 577 547 548 521 q 632 621 606 574 l 656 669 l 694 663 l 592 277 l 554 283 q 557 345 557 317 q 517 454 557 437 q 395 472 477 472 l 370 472 l 285 174 q 266 93 266 106 q 357 45 266 45 q 773 271 646 45 l 808 264 l 722 0 l -38 0 m 552 1012 l 552 1012 l 552 1012 m 568 0 l 568 0 l 568 0 m 0 958 l 0 958 l 0 958 m 299 725 l 231 725 l 415 918 q 455 958 435 941 q 503 975 475 975 q 548 955 528 975 q 568 908 568 935 q 503 839 568 875 l 299 725 m 356 725 l 356 725 l 356 725 z "},"Ê":{"ha":926,"x_min":-38,"x_max":901,"o":"m -38 0 l -38 0 l -38 35 q 45 71 27 41 q 74 139 62 100 l 241 762 q 255 842 255 814 q 228 887 255 878 q 157 899 201 897 l 157 933 l 901 933 l 840 673 l 805 680 l 805 680 q 740 850 805 813 q 543 888 675 888 q 484 873 500 888 q 461 829 469 859 l 380 517 l 438 517 q 577 547 548 521 q 632 621 606 574 l 656 669 l 694 663 l 592 277 l 554 283 q 557 345 557 317 q 517 454 557 437 q 395 472 477 472 l 370 472 l 285 174 q 266 93 266 106 q 357 45 266 45 q 773 271 646 45 l 808 264 l 722 0 l -38 0 m 552 1012 l 552 1012 l 552 1012 m 568 0 l 568 0 l 568 0 m 0 958 l 0 958 l 0 958 m 90 722 l 318 960 l 431 960 l 550 722 l 479 722 l 357 852 l 357 852 l 169 722 l 90 722 m 323 722 l 323 722 l 323 722 z "},"Ë":{"ha":926,"x_min":-38,"x_max":901,"o":"m -38 0 l -38 0 l -38 35 q 45 71 27 41 q 74 139 62 100 l 241 762 q 255 842 255 814 q 228 887 255 878 q 157 899 201 897 l 157 933 l 901 933 l 840 673 l 805 680 l 805 680 q 740 850 805 813 q 543 888 675 888 q 484 873 500 888 q 461 829 469 859 l 380 517 l 438 517 q 577 547 548 521 q 632 621 606 574 l 656 669 l 694 663 l 592 277 l 554 283 q 557 345 557 317 q 517 454 557 437 q 395 472 477 472 l 370 472 l 285 174 q 266 93 266 106 q 357 45 266 45 q 773 271 646 45 l 808 264 l 722 0 l -38 0 m 552 1012 l 552 1012 l 552 1012 m 568 0 l 568 0 l 568 0 m 0 958 l 0 958 l 0 958 m 112 836 q 138 903 112 876 q 202 929 164 929 q 266 902 239 929 q 292 836 292 875 q 266 773 292 798 q 201 749 239 749 q 138 774 164 749 q 112 836 112 800 m 401 836 q 427 903 401 876 q 491 929 453 929 q 555 902 528 929 q 581 836 581 875 q 555 773 581 798 q 490 749 528 749 q 427 773 454 749 q 401 836 401 798 m 347 738 l 347 738 l 347 738 z "},"Ì":{"ha":541,"x_min":-45,"x_max":562,"o":"m -45 0 l -45 0 l -45 35 q 20 56 -8 39 q 64 132 48 73 l 235 752 q 252 848 252 814 q 238 878 252 867 q 150 899 224 890 l 150 933 l 562 933 l 562 899 q 488 872 514 894 q 450 801 463 851 l 279 163 q 268 94 268 121 q 368 35 268 37 l 368 0 l -45 0 m 370 1010 l 370 1010 l 370 1010 m 174 0 l 174 0 l 174 0 m 0 956 l 0 956 l 0 956 m 368 724 l 197 836 q 137 913 137 876 q 155 954 137 934 q 201 973 174 973 q 281 920 241 973 l 430 724 l 368 724 m 317 724 l 317 724 l 317 724 z "},"Í":{"ha":541,"x_min":-45,"x_max":582,"o":"m -45 0 l -45 0 l -45 35 q 20 56 -8 39 q 64 132 48 73 l 235 752 q 252 848 252 814 q 238 878 252 867 q 150 899 224 890 l 150 933 l 562 933 l 562 899 q 488 872 514 894 q 450 801 463 851 l 279 163 q 268 94 268 121 q 368 35 268 37 l 368 0 l -45 0 m 370 1010 l 370 1010 l 370 1010 m 174 0 l 174 0 l 174 0 m 0 956 l 0 956 l 0 956 m 281 725 l 214 725 l 397 918 q 437 958 418 941 q 485 975 457 975 q 530 955 511 975 q 550 908 550 935 q 485 839 550 875 l 281 725 m 338 725 l 338 725 l 338 725 z "},"Î":{"ha":541,"x_min":-45,"x_max":597,"o":"m -45 0 l -45 0 l -45 35 q 20 56 -8 39 q 64 132 48 73 l 235 752 q 252 848 252 814 q 238 878 252 867 q 150 899 224 890 l 150 933 l 562 933 l 562 899 q 488 872 514 894 q 450 801 463 851 l 279 163 q 268 94 268 121 q 368 35 268 37 l 368 0 l -45 0 m 370 1010 l 370 1010 l 370 1010 m 174 0 l 174 0 l 174 0 m 0 956 l 0 956 l 0 956 m 73 722 l 300 960 l 413 960 l 532 722 l 462 722 l 340 852 l 340 852 l 151 722 l 73 722 m 306 722 l 306 722 l 306 722 z "},"Ï":{"ha":541,"x_min":-45,"x_max":605,"o":"m -45 0 l -45 0 l -45 35 q 20 56 -8 39 q 64 132 48 73 l 235 752 q 252 848 252 814 q 238 878 252 867 q 150 899 224 890 l 150 933 l 562 933 l 562 899 q 488 872 514 894 q 450 801 463 851 l 279 163 q 268 94 268 121 q 368 35 268 37 l 368 0 l -45 0 m 370 1010 l 370 1010 l 370 1010 m 174 0 l 174 0 l 174 0 m 0 956 l 0 956 l 0 956 m 94 836 q 120 903 94 876 q 184 929 146 929 q 248 902 222 929 q 275 836 275 875 q 248 773 275 798 q 183 749 222 749 q 120 774 146 749 q 94 836 94 800 m 383 836 q 409 903 383 876 q 473 929 435 929 q 537 902 511 929 q 564 836 564 875 q 537 773 564 798 q 472 749 511 749 q 410 773 437 749 q 383 836 383 798 m 329 738 l 329 738 l 329 738 z "},"Ð":{"ha":1003,"x_min":-45,"x_max":975,"o":"m 169 518 l 169 518 l 227 730 q 252 842 252 819 q 234 880 252 871 q 150 899 216 890 l 150 933 l 556 933 q 867 831 760 933 q 975 547 975 729 q 803 160 975 320 q 350 0 631 0 l -45 0 l -45 0 l -45 35 q 34 68 14 42 q 67 138 54 94 l 152 457 l 152 457 l 13 457 l 29 518 l 169 518 m 376 518 l 376 518 l 541 518 l 525 457 l 358 457 l 358 457 l 292 205 q 274 140 283 172 q 264 96 264 109 q 282 56 264 68 q 349 45 300 45 q 660 221 549 45 q 771 631 771 397 q 545 888 771 888 q 481 871 496 888 q 459 829 466 854 l 376 518 z "},"Ñ":{"ha":1003,"x_min":-38,"x_max":1041,"o":"m -38 0 l -38 0 l -38 35 q 43 87 21 47 q 93 219 66 129 l 269 821 q 222 884 246 869 q 153 899 197 899 l 153 933 l 425 933 l 726 282 l 726 282 l 846 714 q 863 817 863 774 q 751 899 863 890 l 751 933 l 1041 933 l 1041 899 q 949 834 971 887 q 907 714 926 782 l 700 -24 l 662 -24 l 303 743 l 303 743 l 162 237 q 140 120 140 156 q 170 55 140 76 q 252 35 200 35 l 252 0 l -38 0 m 598 1012 l 598 1012 l 598 1012 m 392 0 l 392 0 l 392 0 m 0 958 l 0 958 l 0 958 m 92 758 q 259 924 128 924 q 372 893 297 924 q 465 863 448 863 q 503 874 487 863 q 537 924 518 886 l 593 924 q 432 758 550 758 q 319 789 393 758 q 219 820 245 820 q 149 758 173 820 l 92 758 m 313 730 l 313 730 l 313 730 z "},"Ò":{"ha":1003,"x_min":38,"x_max":969,"o":"m 38 294 q 215 750 38 543 q 635 958 392 958 q 873 866 777 958 q 969 620 969 775 q 787 186 969 398 q 376 -24 606 -24 q 130 67 221 -24 q 38 294 38 159 m 242 207 q 383 23 242 23 q 652 283 539 23 q 765 737 765 545 q 726 863 765 817 q 622 910 687 910 q 349 641 457 910 q 242 207 242 372 m 620 1012 l 620 1012 l 620 1012 m 370 724 l 199 836 q 139 913 139 876 q 157 954 139 934 q 203 973 176 973 q 283 920 243 973 l 432 724 l 370 724 m 319 724 l 319 724 l 319 724 z "},"Ó":{"ha":1003,"x_min":38,"x_max":969,"o":"m 38 294 q 215 750 38 543 q 635 958 392 958 q 873 866 777 958 q 969 620 969 775 q 787 186 969 398 q 376 -24 606 -24 q 130 67 221 -24 q 38 294 38 159 m 242 207 q 383 23 242 23 q 652 283 539 23 q 765 737 765 545 q 726 863 765 817 q 622 910 687 910 q 349 641 457 910 q 242 207 242 372 m 620 1012 l 620 1012 l 620 1012 m 283 725 l 216 725 l 399 918 q 439 958 420 941 q 487 975 459 975 q 532 955 513 975 q 552 908 552 935 q 487 839 552 875 l 283 725 m 340 725 l 340 725 l 340 725 z "},"Ô":{"ha":1003,"x_min":38,"x_max":969,"o":"m 38 294 q 215 750 38 543 q 635 958 392 958 q 873 866 777 958 q 969 620 969 775 q 787 186 969 398 q 376 -24 606 -24 q 130 67 221 -24 q 38 294 38 159 m 242 207 q 383 23 242 23 q 652 283 539 23 q 765 737 765 545 q 726 863 765 817 q 622 910 687 910 q 349 641 457 910 q 242 207 242 372 m 620 1012 l 620 1012 l 620 1012 m 75 722 l 302 960 l 415 960 l 534 722 l 464 722 l 342 852 l 342 852 l 153 722 l 75 722 m 308 722 l 308 722 l 308 722 z "},"Õ":{"ha":1003,"x_min":38,"x_max":969,"o":"m 38 294 q 215 750 38 543 q 635 958 392 958 q 873 866 777 958 q 969 620 969 775 q 787 186 969 398 q 376 -24 606 -24 q 130 67 221 -24 q 38 294 38 159 m 242 207 q 383 23 242 23 q 652 283 539 23 q 765 737 765 545 q 726 863 765 817 q 622 910 687 910 q 349 641 457 910 q 242 207 242 372 m 620 1012 l 620 1012 l 620 1012 m 85 758 q 252 924 121 924 q 366 893 290 924 q 458 863 441 863 q 496 874 480 863 q 530 924 511 886 l 587 924 q 425 758 543 758 q 312 789 386 758 q 212 820 239 820 q 142 758 166 820 l 85 758 m 307 730 l 307 730 l 307 730 z "},"Ö":{"ha":1003,"x_min":38,"x_max":969,"o":"m 38 294 q 215 750 38 543 q 635 958 392 958 q 873 866 777 958 q 969 620 969 775 q 787 186 969 398 q 376 -24 606 -24 q 130 67 221 -24 q 38 294 38 159 m 242 207 q 383 23 242 23 q 652 283 539 23 q 765 737 765 545 q 726 863 765 817 q 622 910 687 910 q 349 641 457 910 q 242 207 242 372 m 620 1012 l 620 1012 l 620 1012 m 96 836 q 122 903 96 876 q 186 929 149 929 q 250 902 224 929 q 277 836 277 875 q 250 773 277 798 q 185 749 224 749 q 122 774 149 749 q 96 836 96 800 m 385 836 q 411 903 385 876 q 475 929 437 929 q 539 902 513 929 q 566 836 566 875 q 539 773 566 798 q 474 749 513 749 q 412 773 439 749 q 385 836 385 798 m 331 738 l 331 738 l 331 738 z "},"×":{"ha":791,"x_min":65,"x_max":727,"o":"m 151 24 l 65 111 l 310 355 l 310 355 l 65 600 l 151 686 l 396 441 l 396 441 l 641 686 l 727 600 l 482 355 l 482 355 l 727 111 l 641 24 l 396 269 l 396 269 l 151 24 z "},"Ø":{"ha":1003,"x_min":38,"x_max":966,"o":"m 743 940 l 743 940 l 819 1067 l 886 1067 l 798 916 l 798 916 q 966 622 966 829 q 785 180 966 385 q 370 -24 604 -24 q 256 -5 310 -24 l 256 -5 l 159 -173 l 92 -173 l 201 17 l 201 17 q 87 122 136 47 q 38 290 38 197 q 214 749 38 540 q 626 958 391 958 q 743 940 688 958 m 709 880 l 709 880 q 618 910 674 910 q 349 643 459 910 q 239 210 239 376 q 255 109 239 148 l 255 109 l 709 880 m 745 826 l 745 826 l 290 54 l 290 54 q 383 23 326 23 q 653 294 541 23 q 765 732 765 566 q 745 826 765 787 z "},"Ù":{"ha":1003,"x_min":0,"x_max":1036,"o":"m 137 899 l 137 933 l 571 933 l 571 899 q 475 873 501 899 q 437 802 450 847 l 300 298 q 283 197 283 237 q 458 54 283 54 q 619 115 550 54 q 746 378 688 176 l 834 694 q 858 819 858 779 q 743 899 858 890 l 743 933 l 1036 933 l 1036 899 q 959 859 983 888 q 898 701 935 830 l 794 341 q 649 60 737 144 q 402 -24 561 -24 q 181 41 270 -24 q 92 209 92 106 q 117 366 92 271 l 227 783 q 233 814 231 798 q 236 843 236 830 q 221 880 236 871 q 137 899 206 890 m 627 1012 l 627 1012 l 627 1012 m 457 0 l 457 0 l 457 0 m 0 958 l 0 958 l 0 958 m 382 724 l 212 836 q 151 913 151 876 q 170 954 151 934 q 215 973 189 973 q 295 920 255 973 l 444 724 l 382 724 m 331 724 l 331 724 l 331 724 z "},"Ú":{"ha":1003,"x_min":0,"x_max":1036,"o":"m 137 899 l 137 933 l 571 933 l 571 899 q 475 873 501 899 q 437 802 450 847 l 300 298 q 283 197 283 237 q 458 54 283 54 q 619 115 550 54 q 746 378 688 176 l 834 694 q 858 819 858 779 q 743 899 858 890 l 743 933 l 1036 933 l 1036 899 q 959 859 983 888 q 898 701 935 830 l 794 341 q 649 60 737 144 q 402 -24 561 -24 q 181 41 270 -24 q 92 209 92 106 q 117 366 92 271 l 227 783 q 233 814 231 798 q 236 843 236 830 q 221 880 236 871 q 137 899 206 890 m 627 1012 l 627 1012 l 627 1012 m 457 0 l 457 0 l 457 0 m 0 958 l 0 958 l 0 958 m 296 725 l 228 725 l 412 918 q 452 958 432 941 q 499 975 471 975 q 545 955 525 975 q 564 908 564 935 q 499 839 564 875 l 296 725 m 353 725 l 353 725 l 353 725 z "},"Û":{"ha":1003,"x_min":0,"x_max":1036,"o":"m 137 899 l 137 933 l 571 933 l 571 899 q 475 873 501 899 q 437 802 450 847 l 300 298 q 283 197 283 237 q 458 54 283 54 q 619 115 550 54 q 746 378 688 176 l 834 694 q 858 819 858 779 q 743 899 858 890 l 743 933 l 1036 933 l 1036 899 q 959 859 983 888 q 898 701 935 830 l 794 341 q 649 60 737 144 q 402 -24 561 -24 q 181 41 270 -24 q 92 209 92 106 q 117 366 92 271 l 227 783 q 233 814 231 798 q 236 843 236 830 q 221 880 236 871 q 137 899 206 890 m 627 1012 l 627 1012 l 627 1012 m 457 0 l 457 0 l 457 0 m 0 958 l 0 958 l 0 958 m 87 722 l 315 960 l 427 960 l 547 722 l 476 722 l 354 852 l 354 852 l 165 722 l 87 722 m 320 722 l 320 722 l 320 722 z "},"Ü":{"ha":1003,"x_min":0,"x_max":1036,"o":"m 137 899 l 137 933 l 571 933 l 571 899 q 475 873 501 899 q 437 802 450 847 l 300 298 q 283 197 283 237 q 458 54 283 54 q 619 115 550 54 q 746 378 688 176 l 834 694 q 858 819 858 779 q 743 899 858 890 l 743 933 l 1036 933 l 1036 899 q 959 859 983 888 q 898 701 935 830 l 794 341 q 649 60 737 144 q 402 -24 561 -24 q 181 41 270 -24 q 92 209 92 106 q 117 366 92 271 l 227 783 q 233 814 231 798 q 236 843 236 830 q 221 880 236 871 q 137 899 206 890 m 627 1012 l 627 1012 l 627 1012 m 457 0 l 457 0 l 457 0 m 0 958 l 0 958 l 0 958 m 109 836 q 134 903 109 876 q 199 929 161 929 q 262 902 236 929 q 289 836 289 875 q 262 773 289 798 q 197 749 236 749 q 134 774 161 749 q 109 836 109 800 m 397 836 q 423 903 397 876 q 488 929 450 929 q 551 902 525 929 q 578 836 578 875 q 551 773 578 798 q 486 749 525 749 q 424 773 451 749 q 397 836 397 798 m 343 738 l 343 738 l 343 738 z "},"Ý":{"ha":848,"x_min":0,"x_max":916,"o":"m 102 0 l 102 35 q 201 59 175 41 q 245 144 227 78 l 326 437 l 205 806 q 180 864 195 838 q 102 899 166 891 l 102 933 l 102 933 l 494 933 l 494 899 q 433 890 471 899 q 395 850 395 882 q 410 780 395 822 l 504 492 l 504 492 l 682 747 q 713 798 705 781 q 722 844 722 816 q 701 883 722 868 q 626 899 682 899 l 626 933 l 916 933 l 916 899 q 791 802 849 886 l 527 430 l 456 168 q 444 98 444 121 q 471 46 444 58 q 549 35 499 35 l 549 0 l 549 0 l 102 0 m 554 1012 l 554 1012 l 554 1012 m 0 958 l 0 958 l 0 958 m 296 725 l 228 725 l 412 918 q 452 958 432 941 q 499 975 471 975 q 545 955 525 975 q 564 908 564 935 q 499 839 564 875 l 296 725 m 353 725 l 353 725 l 353 725 z "},"Þ":{"ha":848,"x_min":-38,"x_max":798,"o":"m 304 260 l 286 176 q 271 96 271 106 q 296 47 271 60 q 370 35 322 35 l 370 0 l -38 0 l -38 35 q 37 66 14 41 q 74 143 60 92 l 243 755 q 258 840 258 812 q 238 882 258 873 q 157 899 218 891 l 157 933 l 569 933 l 569 899 q 496 878 525 899 q 453 812 467 857 l 433 744 l 504 744 q 798 524 798 744 q 694 326 798 399 q 431 253 590 253 q 304 260 368 253 m 318 304 q 376 302 357 302 q 545 382 497 302 q 593 569 593 463 q 477 699 593 699 q 425 682 437 699 q 405 634 413 665 l 318 304 z "},"ß":{"ha":694,"x_min":-278,"x_max":655,"o":"m 330 528 l 340 580 q 367 581 358 581 q 462 658 422 581 q 502 848 502 734 q 436 927 502 927 q 297 711 346 927 l 167 143 q -148 -277 73 -277 q -237 -249 -196 -277 q -278 -172 -278 -220 q -257 -113 -278 -132 q -201 -93 -235 -93 q -157 -111 -173 -93 q -140 -158 -140 -128 q -153 -197 -140 -182 q -164 -219 -164 -212 q -142 -235 -164 -235 q -72 -184 -95 -235 q -28 -43 -48 -132 l 113 566 q 243 868 156 768 q 454 969 331 969 q 597 919 541 969 q 655 792 655 869 q 401 549 655 633 q 601 347 601 513 q 509 102 601 213 q 300 -9 417 -9 q 193 21 237 -9 l 220 70 q 285 38 245 38 q 391 165 346 38 q 437 404 437 293 q 398 510 437 492 q 330 528 360 528 z "},"à":{"ha":694,"x_min":-29,"x_max":634,"o":"m 349 154 q 227 12 277 44 q 121 -20 177 -20 q 11 28 51 -20 q -29 163 -29 75 q 95 476 -29 315 q 347 638 220 638 q 426 605 398 638 q 454 541 454 572 q 481 621 454 541 l 634 630 l 516 237 q 488 101 488 144 q 508 77 488 77 q 605 174 534 77 l 634 153 q 427 -22 523 -22 q 360 3 388 -22 q 332 69 332 29 q 349 154 332 95 m 146 159 q 163 100 146 120 q 205 79 182 79 q 349 233 275 79 q 422 507 422 388 q 370 579 422 579 q 221 419 297 579 q 146 159 146 259 m 429 714 l 429 714 l 429 714 m 512 0 l 512 0 l 512 0 m 382 724 l 212 836 q 152 913 152 876 q 170 954 152 934 q 216 973 189 973 q 296 920 256 973 l 445 724 l 382 724 m 332 724 l 332 724 l 332 724 z "},"á":{"ha":694,"x_min":-29,"x_max":641,"o":"m 349 154 q 227 12 277 44 q 121 -20 177 -20 q 11 28 51 -20 q -29 163 -29 75 q 95 476 -29 315 q 347 638 220 638 q 426 605 398 638 q 454 541 454 572 q 481 621 454 541 l 634 630 l 516 237 q 488 101 488 144 q 508 77 488 77 q 605 174 534 77 l 634 153 q 427 -22 523 -22 q 360 3 388 -22 q 332 69 332 29 q 349 154 332 95 m 146 159 q 163 100 146 120 q 205 79 182 79 q 349 233 275 79 q 422 507 422 388 q 370 579 422 579 q 221 419 297 579 q 146 159 146 259 m 429 714 l 429 714 l 429 714 m 512 0 l 512 0 l 512 0 m 296 725 l 229 725 l 412 918 q 452 958 433 941 q 500 975 472 975 q 545 955 526 975 q 565 908 565 935 q 500 839 565 875 l 296 725 m 353 725 l 353 725 l 353 725 z "},"â":{"ha":694,"x_min":-29,"x_max":656,"o":"m 349 154 q 227 12 277 44 q 121 -20 177 -20 q 11 28 51 -20 q -29 163 -29 75 q 95 476 -29 315 q 347 638 220 638 q 426 605 398 638 q 454 541 454 572 q 481 621 454 541 l 634 630 l 516 237 q 488 101 488 144 q 508 77 488 77 q 605 174 534 77 l 634 153 q 427 -22 523 -22 q 360 3 388 -22 q 332 69 332 29 q 349 154 332 95 m 146 159 q 163 100 146 120 q 205 79 182 79 q 349 233 275 79 q 422 507 422 388 q 370 579 422 579 q 221 419 297 579 q 146 159 146 259 m 429 714 l 429 714 l 429 714 m 512 0 l 512 0 l 512 0 m 87 722 l 315 960 l 428 960 l 547 722 l 477 722 l 355 852 l 355 852 l 166 722 l 87 722 m 321 722 l 321 722 l 321 722 z "},"ã":{"ha":694,"x_min":-29,"x_max":709,"o":"m 349 154 q 227 12 277 44 q 121 -20 177 -20 q 11 28 51 -20 q -29 163 -29 75 q 95 476 -29 315 q 347 638 220 638 q 426 605 398 638 q 454 541 454 572 q 481 621 454 541 l 634 630 l 516 237 q 488 101 488 144 q 508 77 488 77 q 605 174 534 77 l 634 153 q 427 -22 523 -22 q 360 3 388 -22 q 332 69 332 29 q 349 154 332 95 m 146 159 q 163 100 146 120 q 205 79 182 79 q 349 233 275 79 q 422 507 422 388 q 370 579 422 579 q 221 419 297 579 q 146 159 146 259 m 429 714 l 429 714 l 429 714 m 512 0 l 512 0 l 512 0 m 98 758 q 265 924 134 924 q 378 893 303 924 q 471 863 454 863 q 509 874 493 863 q 543 924 524 886 l 600 924 q 438 758 556 758 q 325 789 399 758 q 225 820 252 820 q 155 758 179 820 l 98 758 m 319 730 l 319 730 l 319 730 z "},"ä":{"ha":694,"x_min":-29,"x_max":664,"o":"m 349 154 q 227 12 277 44 q 121 -20 177 -20 q 11 28 51 -20 q -29 163 -29 75 q 95 476 -29 315 q 347 638 220 638 q 426 605 398 638 q 454 541 454 572 q 481 621 454 541 l 634 630 l 516 237 q 488 101 488 144 q 508 77 488 77 q 605 174 534 77 l 634 153 q 427 -22 523 -22 q 360 3 388 -22 q 332 69 332 29 q 349 154 332 95 m 146 159 q 163 100 146 120 q 205 79 182 79 q 349 233 275 79 q 422 507 422 388 q 370 579 422 579 q 221 419 297 579 q 146 159 146 259 m 429 714 l 429 714 l 429 714 m 512 0 l 512 0 l 512 0 m 109 836 q 135 903 109 876 q 199 929 161 929 q 263 902 237 929 q 290 836 290 875 q 263 773 290 798 q 198 749 237 749 q 135 774 161 749 q 109 836 109 800 m 398 836 q 424 903 398 876 q 488 929 450 929 q 552 902 526 929 q 578 836 578 875 q 552 773 578 798 q 487 749 526 749 q 425 773 452 749 q 398 836 398 798 m 344 738 l 344 738 l 344 738 z "},"å":{"ha":694,"x_min":-29,"x_max":634,"o":"m 349 154 q 227 12 277 44 q 121 -20 177 -20 q 11 28 51 -20 q -29 163 -29 75 q 95 476 -29 315 q 347 638 220 638 q 426 605 398 638 q 454 541 454 572 q 481 621 454 541 l 634 630 l 516 237 q 488 101 488 144 q 508 77 488 77 q 605 174 534 77 l 634 153 q 427 -22 523 -22 q 360 3 388 -22 q 332 69 332 29 q 349 154 332 95 m 146 159 q 163 100 146 120 q 205 79 182 79 q 349 233 275 79 q 422 507 422 388 q 370 579 422 579 q 221 419 297 579 q 146 159 146 259 m 429 714 l 429 714 l 429 714 m 512 0 l 512 0 l 512 0 m 207 884 q 250 989 207 945 q 353 1034 292 1034 q 458 989 414 1034 q 503 884 503 945 q 458 781 503 823 q 353 738 414 738 q 250 781 292 738 q 207 884 207 823 m 275 885 q 298 829 275 852 q 354 806 321 806 q 410 829 387 806 q 435 886 435 853 q 410 942 435 919 q 354 966 387 966 q 298 941 321 966 q 275 885 275 918 m 337 738 l 337 738 l 337 738 z "},"æ":{"ha":1003,"x_min":-8,"x_max":936,"o":"m 387 165 q 146 -20 283 -20 q 37 26 81 -20 q -8 160 -8 71 q 118 475 -8 311 q 371 638 245 638 q 487 551 458 638 l 511 627 l 654 634 l 654 634 l 627 551 q 798 638 697 638 q 936 513 936 638 q 856 363 936 437 q 560 248 776 290 q 553 184 553 214 q 650 69 553 69 q 822 186 755 69 l 862 163 q 598 -20 768 -20 q 448 27 494 -20 q 387 165 402 74 l 387 165 m 167 163 q 235 79 167 79 q 389 238 317 79 q 460 491 460 397 q 392 579 460 579 q 243 425 319 579 q 167 163 167 272 m 570 294 q 723 365 634 294 q 812 537 812 436 q 764 596 812 596 q 587 350 661 596 l 570 294 z "},"ç":{"ha":616,"x_min":-28,"x_max":557,"o":"m 452 197 l 492 172 q 346 14 408 49 q 218 -20 284 -20 q 69 39 125 -20 q 14 191 14 98 q 135 493 14 348 q 402 638 256 638 q 515 606 472 638 q 557 520 557 574 q 532 445 557 469 q 468 421 507 421 q 416 439 441 421 q 391 495 391 458 q 404 540 391 516 q 420 571 420 564 q 389 596 420 596 q 252 456 316 596 q 189 207 189 316 q 288 69 189 69 q 452 197 368 69 m 447 714 l 447 714 l 447 714 m 211 0 l 211 0 l 211 0 m -81 -245 l -50 -202 q 44 -222 1 -222 q 118 -163 118 -222 q 52 -115 118 -115 q 12 -121 33 -115 l -5 -104 l 85 28 l 148 28 l 85 -62 q 120 -59 104 -59 q 208 -85 170 -59 q 245 -156 245 -111 q 193 -246 245 -214 q 66 -278 142 -278 q -81 -245 3 -278 m 158 17 l 158 17 l 158 17 z "},"è":{"ha":616,"x_min":8,"x_max":552,"o":"m 191 252 q 183 186 183 214 q 279 69 183 69 q 436 197 351 69 l 476 174 q 357 27 421 74 q 220 -20 293 -20 q 70 36 132 -20 q 8 189 8 92 q 129 491 8 345 q 408 638 250 638 q 511 607 469 638 q 552 516 552 576 q 457 357 552 438 q 191 252 363 275 m 201 297 q 361 384 294 319 q 428 546 428 450 q 387 596 428 596 q 283 511 337 596 q 201 297 229 427 m 389 714 l 389 714 l 389 714 m 302 0 l 302 0 l 302 0 m 374 724 l 204 836 q 144 913 144 876 q 162 954 144 934 q 208 973 181 973 q 288 920 248 973 l 437 724 l 374 724 m 323 724 l 323 724 l 323 724 z "},"é":{"ha":616,"x_min":8,"x_max":601,"o":"m 191 252 q 183 186 183 214 q 279 69 183 69 q 436 197 351 69 l 476 174 q 357 27 421 74 q 220 -20 293 -20 q 70 36 132 -20 q 8 189 8 92 q 129 491 8 345 q 408 638 250 638 q 511 607 469 638 q 552 516 552 576 q 457 357 552 438 q 191 252 363 275 m 201 297 q 361 384 294 319 q 428 546 428 450 q 387 596 428 596 q 283 511 337 596 q 201 297 229 427 m 389 714 l 389 714 l 389 714 m 302 0 l 302 0 l 302 0 m 288 725 l 220 725 l 404 918 q 444 958 425 941 q 492 975 464 975 q 537 955 517 975 q 557 908 557 935 q 492 839 557 875 l 288 725 m 345 725 l 345 725 l 345 725 z "},"ê":{"ha":616,"x_min":8,"x_max":616,"o":"m 191 252 q 183 186 183 214 q 279 69 183 69 q 436 197 351 69 l 476 174 q 357 27 421 74 q 220 -20 293 -20 q 70 36 132 -20 q 8 189 8 92 q 129 491 8 345 q 408 638 250 638 q 511 607 469 638 q 552 516 552 576 q 457 357 552 438 q 191 252 363 275 m 201 297 q 361 384 294 319 q 428 546 428 450 q 387 596 428 596 q 283 511 337 596 q 201 297 229 427 m 389 714 l 389 714 l 389 714 m 302 0 l 302 0 l 302 0 m 79 722 l 307 960 l 420 960 l 539 722 l 469 722 l 347 852 l 347 852 l 158 722 l 79 722 m 313 722 l 313 722 l 313 722 z "},"ë":{"ha":616,"x_min":8,"x_max":624,"o":"m 191 252 q 183 186 183 214 q 279 69 183 69 q 436 197 351 69 l 476 174 q 357 27 421 74 q 220 -20 293 -20 q 70 36 132 -20 q 8 189 8 92 q 129 491 8 345 q 408 638 250 638 q 511 607 469 638 q 552 516 552 576 q 457 357 552 438 q 191 252 363 275 m 201 297 q 361 384 294 319 q 428 546 428 450 q 387 596 428 596 q 283 511 337 596 q 201 297 229 427 m 389 714 l 389 714 l 389 714 m 302 0 l 302 0 l 302 0 m 101 836 q 127 903 101 876 q 191 929 153 929 q 255 902 229 929 q 281 836 281 875 q 255 773 281 798 q 190 749 229 749 q 127 774 153 749 q 101 836 101 800 m 390 836 q 416 903 390 876 q 480 929 442 929 q 544 902 517 929 q 570 836 570 875 q 544 773 570 798 q 479 749 517 749 q 416 773 444 749 q 390 836 390 798 m 336 738 l 336 738 l 336 738 z "},"ì":{"ha":386,"x_min":0,"x_max":362,"o":"m 296 186 l 328 167 q 202 14 250 47 q 100 -20 155 -20 q 27 3 52 -20 q 3 73 3 26 q 25 186 3 104 l 94 442 q 111 517 111 503 q 39 561 111 561 l 29 561 l 29 598 q 310 638 199 610 l 310 638 l 179 161 q 170 98 170 125 q 176 83 170 89 q 192 77 182 77 q 296 186 224 77 m 249 714 l 249 714 l 249 714 m 0 638 l 0 638 l 0 638 m 370 724 l 199 836 q 139 913 139 876 q 157 954 139 934 q 203 973 176 973 q 283 920 243 973 l 432 724 l 370 724 m 319 724 l 319 724 l 319 724 z "},"í":{"ha":386,"x_min":0,"x_max":460,"o":"m 296 186 l 328 167 q 202 14 250 47 q 100 -20 155 -20 q 27 3 52 -20 q 3 73 3 26 q 25 186 3 104 l 94 442 q 111 517 111 503 q 39 561 111 561 l 29 561 l 29 598 q 310 638 199 610 l 310 638 l 179 161 q 170 98 170 125 q 176 83 170 89 q 192 77 182 77 q 296 186 224 77 m 249 714 l 249 714 l 249 714 m 0 638 l 0 638 l 0 638 m 283 725 l 216 725 l 399 918 q 439 958 420 941 q 487 975 459 975 q 532 955 513 975 q 552 908 552 935 q 487 839 552 875 l 283 725 m 340 725 l 340 725 l 340 725 z "},"î":{"ha":386,"x_min":0,"x_max":475,"o":"m 296 186 l 328 167 q 202 14 250 47 q 100 -20 155 -20 q 27 3 52 -20 q 3 73 3 26 q 25 186 3 104 l 94 442 q 111 517 111 503 q 39 561 111 561 l 29 561 l 29 598 q 310 638 199 610 l 310 638 l 179 161 q 170 98 170 125 q 176 83 170 89 q 192 77 182 77 q 296 186 224 77 m 249 714 l 249 714 l 249 714 m 0 638 l 0 638 l 0 638 m 75 722 l 302 960 l 415 960 l 534 722 l 464 722 l 342 852 l 342 852 l 153 722 l 75 722 m 308 722 l 308 722 l 308 722 z "},"ï":{"ha":386,"x_min":0,"x_max":484,"o":"m 296 186 l 328 167 q 202 14 250 47 q 100 -20 155 -20 q 27 3 52 -20 q 3 73 3 26 q 25 186 3 104 l 94 442 q 111 517 111 503 q 39 561 111 561 l 29 561 l 29 598 q 310 638 199 610 l 310 638 l 179 161 q 170 98 170 125 q 176 83 170 89 q 192 77 182 77 q 296 186 224 77 m 249 714 l 249 714 l 249 714 m 0 638 l 0 638 l 0 638 m 96 836 q 122 903 96 876 q 186 929 149 929 q 250 902 224 929 q 277 836 277 875 q 250 773 277 798 q 185 749 224 749 q 122 774 149 749 q 96 836 96 800 m 385 836 q 411 903 385 876 q 475 929 437 929 q 539 902 513 929 q 566 836 566 875 q 539 773 566 798 q 474 749 513 749 q 412 773 439 749 q 385 836 385 798 m 331 738 l 331 738 l 331 738 z "},"ð":{"ha":694,"x_min":-5,"x_max":633,"o":"m 354 838 l 354 838 q 190 928 273 916 l 251 966 q 436 881 349 953 l 436 881 l 585 962 l 633 917 l 484 838 l 484 838 q 614 524 614 699 q 496 139 614 298 q 215 -20 377 -20 q 54 42 113 -20 q -5 191 -5 104 q 117 497 -5 357 q 383 638 239 638 q 433 627 410 638 q 482 576 456 615 q 395 791 481 686 l 395 791 l 227 703 l 182 746 l 354 838 m 159 114 q 231 22 159 22 q 386 200 322 22 q 450 511 450 378 q 385 596 450 596 q 224 415 290 596 q 159 114 159 234 z "},"ñ":{"ha":772,"x_min":-8,"x_max":702,"o":"m -8 0 l 91 353 q 135 526 135 507 q 118 554 135 548 q 58 561 102 561 l 58 598 q 336 638 172 598 l 336 638 l 249 367 q 396 564 330 490 q 553 638 463 638 q 654 526 654 638 q 592 294 654 475 q 541 140 549 174 q 532 103 532 108 q 536 82 532 87 q 554 77 541 77 q 648 176 581 77 l 680 158 q 570 18 620 56 q 464 -20 519 -20 q 366 72 366 -20 q 426 314 366 131 q 475 458 463 425 q 487 506 487 492 q 478 530 487 523 q 454 538 470 538 q 331 425 408 538 q 204 161 254 311 q 159 0 179 81 l -8 0 m 422 714 l 422 714 l 422 714 m 298 0 l 298 0 l 298 0 m 102 758 q 269 924 138 924 q 382 893 307 924 q 474 863 457 863 q 512 874 496 863 q 547 924 528 886 l 603 924 q 441 758 559 758 q 328 789 402 758 q 229 820 255 820 q 158 758 182 820 l 102 758 m 323 730 l 323 730 l 323 730 z "},"ò":{"ha":694,"x_min":-5,"x_max":614,"o":"m -5 189 q 115 496 -5 355 q 399 638 236 638 q 551 581 488 638 q 614 422 614 525 q 498 123 614 265 q 220 -20 383 -20 q 62 34 131 -20 q -5 189 -5 88 m 159 117 q 231 22 159 22 q 382 203 315 22 q 450 509 450 383 q 383 596 450 596 q 224 417 291 596 q 159 117 159 238 m 409 714 l 409 714 l 409 714 m 368 724 l 198 836 q 138 913 138 876 q 156 954 138 934 q 201 973 175 973 q 281 920 241 973 l 431 724 l 368 724 m 317 724 l 317 724 l 317 724 z "},"ó":{"ha":694,"x_min":-5,"x_max":621,"o":"m -5 189 q 115 496 -5 355 q 399 638 236 638 q 551 581 488 638 q 614 422 614 525 q 498 123 614 265 q 220 -20 383 -20 q 62 34 131 -20 q -5 189 -5 88 m 159 117 q 231 22 159 22 q 382 203 315 22 q 450 509 450 383 q 383 596 450 596 q 224 417 291 596 q 159 117 159 238 m 409 714 l 409 714 l 409 714 m 282 725 l 214 725 l 398 918 q 438 958 418 941 q 486 975 458 975 q 531 955 511 975 q 551 908 551 935 q 486 839 551 875 l 282 725 m 339 725 l 339 725 l 339 725 z "},"ô":{"ha":694,"x_min":-5,"x_max":635,"o":"m -5 189 q 115 496 -5 355 q 399 638 236 638 q 551 581 488 638 q 614 422 614 525 q 498 123 614 265 q 220 -20 383 -20 q 62 34 131 -20 q -5 189 -5 88 m 159 117 q 231 22 159 22 q 382 203 315 22 q 450 509 450 383 q 383 596 450 596 q 224 417 291 596 q 159 117 159 238 m 409 714 l 409 714 l 409 714 m 73 722 l 301 960 l 414 960 l 533 722 l 463 722 l 340 852 l 340 852 l 152 722 l 73 722 m 307 722 l 307 722 l 307 722 z "},"õ":{"ha":694,"x_min":-5,"x_max":689,"o":"m -5 189 q 115 496 -5 355 q 399 638 236 638 q 551 581 488 638 q 614 422 614 525 q 498 123 614 265 q 220 -20 383 -20 q 62 34 131 -20 q -5 189 -5 88 m 159 117 q 231 22 159 22 q 382 203 315 22 q 450 509 450 383 q 383 596 450 596 q 224 417 291 596 q 159 117 159 238 m 409 714 l 409 714 l 409 714 m 84 758 q 251 924 120 924 q 364 893 289 924 q 456 863 439 863 q 494 874 479 863 q 529 924 510 886 l 585 924 q 424 758 542 758 q 311 789 385 758 q 211 820 237 820 q 140 758 165 820 l 84 758 m 305 730 l 305 730 l 305 730 z "},"ö":{"ha":694,"x_min":-5,"x_max":644,"o":"m -5 189 q 115 496 -5 355 q 399 638 236 638 q 551 581 488 638 q 614 422 614 525 q 498 123 614 265 q 220 -20 383 -20 q 62 34 131 -20 q -5 189 -5 88 m 159 117 q 231 22 159 22 q 382 203 315 22 q 450 509 450 383 q 383 596 450 596 q 224 417 291 596 q 159 117 159 238 m 409 714 l 409 714 l 409 714 m 95 836 q 121 903 95 876 q 185 929 147 929 q 249 902 222 929 q 275 836 275 875 q 249 773 275 798 q 184 749 222 749 q 121 774 147 749 q 95 836 95 800 m 384 836 q 410 903 384 876 q 474 929 436 929 q 538 902 511 929 q 564 836 564 875 q 538 773 564 798 q 473 749 511 749 q 410 773 437 749 q 384 836 384 798 m 330 738 l 330 738 l 330 738 z "},"÷":{"ha":791,"x_min":43,"x_max":749,"o":"m 399 161 q 469 132 439 161 q 499 60 499 104 q 469 -16 499 14 q 393 -45 439 -45 q 319 -12 345 -45 q 293 60 293 20 q 323 131 293 101 q 399 161 353 161 m 43 292 l 43 414 l 749 414 l 749 292 l 43 292 m 399 750 q 470 720 441 750 q 499 648 499 691 q 471 574 499 605 q 393 544 442 544 q 319 576 345 544 q 293 648 293 609 q 323 720 293 690 q 399 750 353 750 z "},"ø":{"ha":694,"x_min":-5,"x_max":614,"o":"m 102 7 l 102 7 q -5 189 -5 62 q 117 494 -5 351 q 399 638 239 638 q 456 631 427 638 l 456 631 l 541 779 l 591 779 l 500 614 l 500 614 q 614 425 614 563 q 496 118 614 256 q 220 -20 378 -20 q 147 -11 184 -20 l 147 -11 l 58 -172 l 3 -172 l 102 7 m 450 520 l 450 520 l 178 43 l 178 43 q 229 22 195 22 q 385 202 319 22 q 450 503 450 382 q 450 520 450 518 m 159 108 l 159 108 l 427 575 l 427 575 q 382 596 408 596 q 222 414 287 596 q 159 108 159 233 l 159 108 z "},"ù":{"ha":772,"x_min":0,"x_max":688,"o":"m 519 618 l 683 618 q 602 341 642 479 q 540 104 540 132 q 562 77 540 77 q 659 176 592 77 l 688 157 q 467 -20 589 -20 q 398 3 421 -20 q 376 61 376 26 q 405 208 376 110 q 253 29 313 78 q 130 -20 193 -20 q 50 8 78 -20 q 21 87 21 36 q 71 309 21 137 q 124 518 124 482 q 47 561 124 561 l 47 598 q 203 615 122 601 q 338 638 285 629 l 338 638 l 203 204 q 185 115 185 145 q 216 80 185 80 q 312 151 253 80 q 379 246 353 199 q 519 618 444 359 m 465 714 l 465 714 l 465 714 m 555 0 l 555 0 l 555 0 m 0 638 l 0 638 l 0 638 m 382 724 l 212 836 q 152 913 152 876 q 170 954 152 934 q 216 973 189 973 q 296 920 256 973 l 445 724 l 382 724 m 332 724 l 332 724 l 332 724 z "},"ú":{"ha":772,"x_min":0,"x_max":688,"o":"m 519 618 l 683 618 q 602 341 642 479 q 540 104 540 132 q 562 77 540 77 q 659 176 592 77 l 688 157 q 467 -20 589 -20 q 398 3 421 -20 q 376 61 376 26 q 405 208 376 110 q 253 29 313 78 q 130 -20 193 -20 q 50 8 78 -20 q 21 87 21 36 q 71 309 21 137 q 124 518 124 482 q 47 561 124 561 l 47 598 q 203 615 122 601 q 338 638 285 629 l 338 638 l 203 204 q 185 115 185 145 q 216 80 185 80 q 312 151 253 80 q 379 246 353 199 q 519 618 444 359 m 465 714 l 465 714 l 465 714 m 555 0 l 555 0 l 555 0 m 0 638 l 0 638 l 0 638 m 296 725 l 229 725 l 412 918 q 452 958 433 941 q 500 975 472 975 q 545 955 526 975 q 565 908 565 935 q 500 839 565 875 l 296 725 m 353 725 l 353 725 l 353 725 z "},"û":{"ha":772,"x_min":0,"x_max":692,"o":"m 519 618 l 683 618 q 602 341 642 479 q 540 104 540 132 q 562 77 540 77 q 659 176 592 77 l 688 157 q 467 -20 589 -20 q 398 3 421 -20 q 376 61 376 26 q 405 208 376 110 q 253 29 313 78 q 130 -20 193 -20 q 50 8 78 -20 q 21 87 21 36 q 71 309 21 137 q 124 518 124 482 q 47 561 124 561 l 47 598 q 203 615 122 601 q 338 638 285 629 l 338 638 l 203 204 q 185 115 185 145 q 216 80 185 80 q 312 151 253 80 q 379 246 353 199 q 519 618 444 359 m 465 714 l 465 714 l 465 714 m 555 0 l 555 0 l 555 0 m 0 638 l 0 638 l 0 638 m 87 722 l 315 960 l 428 960 l 547 722 l 477 722 l 355 852 l 355 852 l 166 722 l 87 722 m 321 722 l 321 722 l 321 722 z "},"ü":{"ha":772,"x_min":0,"x_max":700,"o":"m 519 618 l 683 618 q 602 341 642 479 q 540 104 540 132 q 562 77 540 77 q 659 176 592 77 l 688 157 q 467 -20 589 -20 q 398 3 421 -20 q 376 61 376 26 q 405 208 376 110 q 253 29 313 78 q 130 -20 193 -20 q 50 8 78 -20 q 21 87 21 36 q 71 309 21 137 q 124 518 124 482 q 47 561 124 561 l 47 598 q 203 615 122 601 q 338 638 285 629 l 338 638 l 203 204 q 185 115 185 145 q 216 80 185 80 q 312 151 253 80 q 379 246 353 199 q 519 618 444 359 m 465 714 l 465 714 l 465 714 m 555 0 l 555 0 l 555 0 m 0 638 l 0 638 l 0 638 m 109 836 q 135 903 109 876 q 199 929 161 929 q 263 902 237 929 q 290 836 290 875 q 263 773 290 798 q 198 749 237 749 q 135 774 161 749 q 109 836 109 800 m 398 836 q 424 903 398 876 q 488 929 450 929 q 552 902 526 929 q 578 836 578 875 q 552 773 578 798 q 487 749 526 749 q 425 773 452 749 q 398 836 398 798 m 344 738 l 344 738 l 344 738 z "},"ý":{"ha":616,"x_min":-134,"x_max":578,"o":"m 18 604 q 224 638 140 615 l 224 638 q 332 157 275 517 l 332 157 q 449 429 449 389 q 410 488 449 458 q 372 563 372 515 q 396 614 372 590 q 454 638 420 638 q 515 615 492 638 q 539 547 539 593 q 355 85 539 399 q 134 -203 228 -123 q -46 -282 41 -282 q -109 -256 -84 -282 q -134 -198 -134 -229 q -112 -146 -134 -170 q -58 -122 -90 -122 q 12 -148 -30 -122 q 66 -171 53 -171 q 145 -100 98 -171 q 192 41 192 -28 l 192 41 l 192 41 q 161 244 192 86 q 119 427 134 376 q 77 544 93 524 q 18 567 60 567 l 18 567 l 18 604 m 366 714 l 366 714 l 366 714 m 0 638 l 0 638 l 0 638 m 300 725 l 232 725 l 416 918 q 456 958 436 941 q 503 975 475 975 q 549 955 529 975 q 568 908 568 935 q 503 839 568 875 l 300 725 m 357 725 l 357 725 l 357 725 z "},"þ":{"ha":694,"x_min":-167,"x_max":614,"o":"m -167 -282 l -167 -282 l -167 -245 q -93 -220 -109 -245 q -61 -134 -77 -195 l 178 791 q 191 848 191 837 q 178 880 191 871 q 125 888 165 888 l 103 888 l 103 926 q 332 954 277 943 q 387 966 387 964 l 387 966 l 251 486 q 464 638 358 638 q 614 461 614 638 q 494 137 614 294 q 233 -20 373 -20 q 184 -11 210 -20 q 141 11 159 -2 l 100 -149 q 90 -200 90 -186 q 113 -238 90 -231 q 180 -245 136 -245 l 180 -282 l -167 -282 m 156 80 q 172 39 156 51 q 209 28 187 28 q 368 195 297 28 q 439 469 439 362 q 389 541 439 541 q 220 330 285 541 q 156 80 156 119 z "},"ÿ":{"ha":616,"x_min":-134,"x_max":601,"o":"m 18 604 q 224 638 140 615 l 224 638 q 332 157 275 517 l 332 157 q 449 429 449 389 q 410 488 449 458 q 372 563 372 515 q 396 614 372 590 q 454 638 420 638 q 515 615 492 638 q 539 547 539 593 q 355 85 539 399 q 134 -203 228 -123 q -46 -282 41 -282 q -109 -256 -84 -282 q -134 -198 -134 -229 q -112 -146 -134 -170 q -58 -122 -90 -122 q 12 -148 -30 -122 q 66 -171 53 -171 q 145 -100 98 -171 q 192 41 192 -28 l 192 41 l 192 41 q 161 244 192 86 q 119 427 134 376 q 77 544 93 524 q 18 567 60 567 l 18 567 l 18 604 m 366 714 l 366 714 l 366 714 m 0 638 l 0 638 l 0 638 m 113 836 q 138 903 113 876 q 203 929 165 929 q 267 902 240 929 q 293 836 293 875 q 267 773 293 798 q 201 749 240 749 q 138 774 165 749 q 113 836 113 800 m 401 836 q 427 903 401 876 q 492 929 454 929 q 555 902 529 929 q 582 836 582 875 q 555 773 582 798 q 490 749 529 749 q 428 773 455 749 q 401 836 401 798 m 347 738 l 347 738 l 347 738 z "}}}
